<svg xmlns="http://www.w3.org/2000/svg" xmlns:xlink="http://www.w3.org/1999/xlink"><symbol xmlns="http://www.w3.org/2000/svg" viewBox="0 0 95 133" id="arrowDown"><path d="M43.413 118.92L7.69 83.194A4.022 4.022 0 102 88.883l42.743 42.743a4.02 4.02 0 003.156 1.171 4.009 4.009 0 003.114-1.165l42.66-42.66a4.033 4.033 0 00-.005-5.694 4.028 4.028 0 00-5.693-.006L52.48 118.767V5.477a4.533 4.533 0 10-9.066 0v113.442z"/></symbol><symbol xmlns="http://www.w3.org/2000/svg" viewBox="0 0 133 95" id="arrowLeft"><path d="M14.08 43.413L49.806 7.69A4.022 4.022 0 1044.117 2L1.374 44.744A4.02 4.02 0 00.203 47.9a4.009 4.009 0 001.165 3.114l42.66 42.66a4.033 4.033 0 005.694-.005 4.028 4.028 0 00.006-5.693L14.233 52.48h113.29a4.533 4.533 0 100-9.066H14.082z"/></symbol><symbol xmlns="http://www.w3.org/2000/svg" viewBox="0 0 133 95" id="arrowRight"><path d="M118.156 43.413L82.43 7.69A4.022 4.022 0 1188.12 2l42.743 42.743a4.02 4.02 0 011.171 3.157 4.009 4.009 0 01-1.165 3.114l-42.66 42.66a4.033 4.033 0 01-5.694-.006 4.028 4.028 0 01-.006-5.693l35.495-35.495H4.713a4.533 4.533 0 110-9.067h113.443z"/></symbol><symbol xmlns="http://www.w3.org/2000/svg" viewBox="0 0 95 133" id="arrowUp"><path d="M43.413 14.844L7.69 50.57A4.022 4.022 0 112 44.88L44.744 2.138A4.02 4.02 0 0147.901.967a4.009 4.009 0 013.114 1.165l42.66 42.66a4.033 4.033 0 01-.006 5.694 4.028 4.028 0 01-5.693.006L52.48 14.997v113.29a4.533 4.533 0 11-9.067 0V14.845z"/></symbol><symbol xmlns="http://www.w3.org/2000/svg" viewBox="0 0 48 48" id="icon_500px"><path d="M13.198 30.902l.374.98a14.365 14.365 0 003.085 4.577 14.354 14.354 0 0010.184 4.217 14.375 14.375 0 0010.184-4.218 14.33 14.33 0 003.088-4.578 14.31 14.31 0 001.133-5.607 14.37 14.37 0 00-4.22-10.184 14.36 14.36 0 00-10.186-4.218c-1.967 0-3.932.39-5.685 1.13-1.399.593-3.77 2.118-5.155 3.548l-.007-11.843h19.91c.725-.007.725-1.02.725-1.351 0-.334 0-1.344-.726-1.353h-21.53a.946.946 0 00-.949.939v16.685c0 .537.671.925 1.294 1.06 1.218.26 1.498-.129 1.795-.541l.04-.055c.455-.677 1.876-2.107 1.89-2.122 2.22-2.218 5.186-3.439 8.352-3.439a11.7 11.7 0 018.328 3.44 11.675 11.675 0 013.453 8.304c0 3.14-1.221 6.09-3.436 8.305-2.185 2.188-5.24 3.44-8.378 3.44-2.127 0-4.178-.567-5.937-1.64l.008-10.143c0-1.353.586-2.823 1.57-3.934a5.756 5.756 0 014.362-1.968c1.637 0 3.165.62 4.303 1.75a5.875 5.875 0 011.753 4.2c0 3.39-2.666 6.044-6.069 6.044-.656 0-1.848-.29-1.897-.303-.688-.205-.979.75-1.074 1.064-.37 1.21.185 1.45.3 1.485 1.095.339 1.814.403 2.756.403 4.803 0 8.712-3.91 8.712-8.715 0-4.769-3.905-8.646-8.707-8.646-2.352 0-4.56.898-6.22 2.53-1.58 1.554-2.486 3.626-2.486 5.685v.051c-.008.257-.013 6.338-.015 8.333-.904-1-1.804-2.54-2.396-4.104-.231-.612-.755-.504-1.47-.284-.316.096-1.265.389-1.056 1.076zm10.237-2.376c.002.292.27.549.429.7l.05.049c.273.269.533.405.773.405.2 0 .321-.094.365-.134l1.611-1.624 1.52 1.514c.142.157.294.238.471.242.242 0 .506-.145.785-.427.655-.67.328-1.03.169-1.205l-1.538-1.54 1.604-1.615c.352-.381.042-.786-.268-1.096-.45-.451-.883-.567-1.162-.31l-1.597 1.599-1.613-1.616a.447.447 0 00-.312-.124c-.215 0-.47.146-.757.432-.497.497-.603.84-.345 1.113l1.613 1.608-1.604 1.608c-.13.134-.196.275-.194.421zm3.518-21.813c-2.58 0-5.324.521-7.34 1.394a.579.579 0 00-.374.5c-.026.23.036.532.19.926.125.32.458 1.168 1.1.922 2.063-.786 4.345-1.22 6.424-1.22 2.356 0 4.639.46 6.789 1.369 1.709.724 3.32 1.767 5.073 3.285a.609.609 0 00.403.167c.343 0 .67-.335.95-.649.467-.524.79-.96.328-1.397-1.674-1.586-3.507-2.77-5.771-3.727a19.847 19.847 0 00-7.772-1.57zm13.9 31.858c-.31-.31-.573-.493-.806-.559a.586.586 0 00-.607.145l-.152.152a17.344 17.344 0 01-12.311 5.099 17.364 17.364 0 01-12.31-5.099c-1.667-1.666-2.924-3.527-3.733-5.535-.79-1.956-1.048-3.428-1.133-3.91l-.018-.105c-.108-.57-.632-.608-1.386-.495-.312.048-1.265.195-1.175.88l.002.015a19.947 19.947 0 005.61 10.982 19.92 19.92 0 006.356 4.284A19.852 19.852 0 0026.977 46a19.936 19.936 0 0014.142-5.86l.16-.163c.201-.22.377-.604-.426-1.406z"/></symbol><symbol xmlns="http://www.w3.org/2000/svg" viewBox="0 0 48 48" id="icon_about"><g><path d="M24.038 29.5c-6.55 0-11.878-6.168-11.878-13.75S17.488 2 24.038 2s11.879 6.168 11.879 13.75S30.588 29.5 24.038 29.5zm0-25.667c-5.538 0-10.044 5.346-10.044 11.917 0 6.57 4.506 11.917 10.044 11.917 5.539 0 10.045-5.346 10.045-11.917 0-6.57-4.506-11.917-10.044-11.917z"/><path d="M45.983 46H2.017v-6.207a6.429 6.429 0 014.258-6.042l11.308-3.116v-3.809h1.834v5.206l-12.59 3.465c-1.754.63-2.977 2.364-2.977 4.296v4.374h40.3v-4.374a4.593 4.593 0 00-3.042-4.316l-12.525-3.445v-5.167h1.834v3.77L41.66 33.73c2.612.93 4.324 3.357 4.324 6.062V46zM32.066 14.117a3.93 3.93 0 01-.188-.004c-2.064-.075-4.469-1.38-5.997-3.145-1.069 1.362-2.595 2.238-4.484 2.56-3.305.566-7.084-.702-8.234-1.818l1.277-1.316c.554.538 3.699 1.828 6.65 1.325 1.831-.31 3.151-1.252 3.923-2.796l.766-1.532.85 1.487c1.015 1.776 3.45 3.334 5.317 3.402.83.022 1.42-.226 1.797-.785l1.521 1.024c-.697 1.035-1.827 1.598-3.198 1.598z"/></g></symbol><symbol xmlns="http://www.w3.org/2000/svg" viewBox="0 0 48 48" id="icon_behance"><g><path d="M19.757 22.749s4.162-.316 4.162-5.297c0-4.976-2.823-7.429-7.138-7.429L2 10v27.5h15.125s7.563.24 7.563-8.25c0 0 .555-6.501-4.931-6.501zM7.5 14.125h7.563s2.587.043 2.587 3.398C17.65 21 15.062 21 15.062 21H7.5v-6.875zm8.25 19.25H7.5v-8.25h8.25s4.125.043 4.125 4.125-3.531 4.125-4.125 4.125zm20.625-16.5c-10.33 0-10.313 10.313-10.313 10.313S25.375 37.5 36.376 37.5c0 0 9.625 0 9.625-8.25h-5.5s0 4.125-4.125 4.125c0 0-4.125 0-4.125-5.5H46c0-2.75 0-11-9.625-11zm-4.125 8.25S32.16 21 36.375 21c4.214 0 4.125 4.125 4.125 4.125h-8.25zM30.875 12.75h11v2.75h-11z"/></g></symbol><symbol xmlns="http://www.w3.org/2000/svg" viewBox="0 0 48 48" id="icon_blog"><g><path d="M7.789 46L6 44.167h36.667L40.878 46V2l1.789 1.833H6L7.789 2v44zM6 46V2h36.667v44H6z"/><path d="M25.25 12.083v1.834H13.333v-1.834H25.25zM35.333 34.083v1.834h-22v-1.834h22zm-3.666-7.333v1.833H13.333V26.75h18.334zm3.666-7.333v1.833h-22v-1.833h22z"/></g></symbol><symbol xmlns="http://www.w3.org/2000/svg" viewBox="0 0 48 48" id="icon_close"><g><path d="M45.1 45.914a.902.902 0 01-.644-.266L2.352 3.544a.906.906 0 010-1.278.906.906 0 011.278 0L45.734 44.37a.906.906 0 010 1.278.869.869 0 01-.635.266z"/><path d="M2.343 45.648a.906.906 0 010-1.278L44.456 2.266a.906.906 0 011.278 0 .906.906 0 010 1.278L3.63 45.648a.902.902 0 01-.644.266.902.902 0 01-.643-.266z"/></g></symbol><symbol xmlns="http://www.w3.org/2000/svg" viewBox="0 0 48 48" id="icon_deezer"><g><path d="M2 36h8v-2H2v2zM11 36h8v-2h-8v2zM20 36h8v-2h-8v2zM29 36h8v-2h-8v2zM38 36h8v-2h-8v2zM2 33h8v-2H2v2zM11 33h8v-2h-8v2zM20 33h8v-2h-8v2zM29 33h8v-2h-8v2zM38 33h8v-2h-8v2zM2 30h8v-2H2v2zM11 30h8v-2h-8v2zM20 30h8v-2h-8v2zM29 30h8v-2h-8v2zM38 30h8v-2h-8v2zM2 27h8v-2H2v2zM20 27h8v-2h-8v2zM29 27h8v-2h-8v2zM38 27h8v-2h-8v2zM2 24h8v-2H2v2zM20 24h8v-2h-8v2zM29 24h8v-2h-8v2zM38 24h8v-2h-8v2zM20 21h8v-2h-8v2zM38 21h8v-2h-8v2zM20 18h8v-2h-8v2zM38 18h8v-2h-8v2zM38 15h8v-2h-8v2z"/></g></symbol><symbol xmlns="http://www.w3.org/2000/svg" viewBox="0 0 48 48" id="icon_dribbble"><path d="M38.509 12.065c-.034.05-3.05 4.404-10.466 7.433a62.5 62.5 0 011.25 2.724c.138.329.274.65.405.974 6.454-.813 12.812.552 13.084.61a18.718 18.718 0 00-4.273-11.741zm-7.667 14.097c2.464 6.771 3.465 12.287 3.656 13.42a18.797 18.797 0 008.05-12.602c-.387-.127-5.642-1.79-11.706-.819zm.492 15.136c-.277-1.642-1.368-7.395-4.012-14.266-.043.015-.084.027-.127.043-11.083 3.862-14.704 11.65-14.742 11.737A18.747 18.747 0 0024 42.789a18.73 18.73 0 007.334-1.492zm-4.738-24.6c7.088-2.656 9.764-6.73 9.81-6.799A18.694 18.694 0 0024 5.215c-1.526 0-3.009.184-4.427.526.281.377 3.81 5.059 7.023 10.958zm-.555 7.22a63.712 63.712 0 00-1.524-3.192c-9.675 2.897-18.956 2.688-19.288 2.676-.006.2-.017.396-.017.598a18.69 18.69 0 004.814 12.551c-.007-.008 5.136-9.13 15.273-12.41.244-.08.494-.152.742-.222zm19.51-4.347a22.07 22.07 0 010 8.856 21.933 21.933 0 01-1.284 4.137 21.527 21.527 0 01-2.028 3.735 22.199 22.199 0 01-2.684 3.256 22.81 22.81 0 01-3.254 2.686 22.36 22.36 0 01-3.738 2.026 22.03 22.03 0 01-4.133 1.28 21.938 21.938 0 01-8.86 0 22.114 22.114 0 01-4.135-1.28 22.318 22.318 0 01-3.739-2.026 22.545 22.545 0 01-3.251-2.686A22.208 22.208 0 015.759 36.3a21.954 21.954 0 01-3.313-7.872 22.185 22.185 0 010-8.856 21.962 21.962 0 015.997-11.13 22.437 22.437 0 013.252-2.682 21.816 21.816 0 017.873-3.315 22.216 22.216 0 018.862.002c1.414.289 2.804.719 4.134 1.281A21.943 21.943 0 0136.3 5.761a22.413 22.413 0 013.254 2.682A22.214 22.214 0 0142.24 11.7a21.41 21.41 0 012.029 3.739 21.617 21.617 0 011.282 4.133zm-22.59-1.738c-3.252-5.778-6.727-10.492-6.977-10.825-5.24 2.473-9.15 7.302-10.37 13.12.496.003 8.325.102 17.346-2.295z"/></symbol><symbol xmlns="http://www.w3.org/2000/svg" viewBox="0 0 48 48" id="icon_facebook"><path d="M18.291 46h9.091V23.997h6.066l.803-7.582h-6.869l.01-3.796c0-1.976.189-3.037 3.025-3.037h3.791V2h-6.066c-7.287 0-9.852 3.678-9.852 9.864v4.553h-4.541V24h4.542v22z"/></symbol><symbol xmlns="http://www.w3.org/2000/svg" viewBox="0 0 48 48" id="icon_github"><path d="M23.516 3C11.64 3 2.01 12.619 2.01 24.484c0 9.491 6.16 17.544 14.708 20.386 1.076.196 1.415-.44 1.415-1.01 0-.51.01-1.937 0-3.73-5.982 1.3-7.221-2.83-7.221-2.83-.978-2.481-2.387-3.142-2.387-3.142-1.952-1.332.147-1.307.147-1.307 2.158.152 3.295 2.215 3.295 2.215 1.919 3.281 5.032 2.333 6.257 1.785.196-1.389.753-2.336 1.367-2.873-4.775-.542-9.795-2.385-9.795-10.618 0-2.346.837-4.263 2.213-5.764-.222-.543-.962-2.728.21-5.686 0 0 1.806-.578 5.914 2.204a20.605 20.605 0 015.384-.723c1.827.008 3.667.246 5.385.723 4.107-2.78 5.91-2.204 5.91-2.204 1.173 2.958.435 5.143.214 5.686 1.375 1.501 2.21 3.418 2.21 5.764 0 8.254-5.028 10.07-9.82 10.6.772.666 1.473 1.955 1.473 3.959v5.947c0 .574.346 1.21 1.438 1.001 8.54-2.845 14.695-10.894 14.695-20.383C45.023 12.62 35.394 3 23.516 3z"/></symbol><symbol xmlns="http://www.w3.org/2000/svg" viewBox="0 0 48 48" id="icon_googleplus"><path d="M29.239 3.045H16.323c-5.908 0-11.471 4.147-11.471 9.33 0 5.297 4.027 9.417 10.039 9.417.419 0 .825-.095 1.223-.124-.393.744-.667 1.544-.667 2.417 0 1.473.79 2.648 1.79 3.623-.751 0-1.486.011-2.284.011C7.635 27.721 2 32.38 2 37.212c0 4.76 6.176 7.742 13.496 7.742 8.344 0 12.955-4.74 12.955-9.5 0-3.816-1.128-6.104-4.608-8.572-1.192-.84-3.469-2.892-3.469-4.099 0-1.412.403-2.108 2.532-3.771 2.176-1.701 3.72-3.732 3.72-6.52 0-3.312-1.424-7.354-4.196-7.354h4.715l2.094-2.093zm-4.336 31.584c.1.444.161.899.161 1.36 0 3.847-2.483 6.853-9.596 6.853-5.06 0-8.712-3.201-8.712-7.049 0-3.768 4.532-6.91 9.595-6.853a11.18 11.18 0 013.277.521c2.747 1.915 4.716 2.994 5.275 5.168zM16.8 20.279c-3.396-.099-6.625-3.799-7.209-8.255-.584-4.463 1.693-7.876 5.088-7.776 3.394.105 6.624 3.684 7.209 8.143.585 4.458-1.692 7.989-5.088 7.888zm22.915-.486v-6.286h-4.191v6.286h-6.285v4.19h6.285v6.286h4.19v-6.285H46v-4.192z"/></symbol><symbol xmlns="http://www.w3.org/2000/svg" viewBox="0 0 48 48" id="icon_home"><g><path d="M27.667 45.167V33.25h-7.334v11.917H7.5v-24.75c0-.506.41-.917.917-.917.507 0 .916-.506.916 0v23.833H18.5V31.417h11v11.916h9.167V19.5c0-.506.41 0 .916 0 .507 0 .917.41.917.917v24.75H27.667z"/><path d="M45.083 25.917a.914.914 0 01-.633-.254L24 6.102 3.55 25.662a.918.918 0 01-1.268-1.324L24 3.565l21.717 20.772a.918.918 0 01-.634 1.58z"/></g></symbol><symbol xmlns="http://www.w3.org/2000/svg" viewBox="0 0 48 48" id="icon_instagram"><path d="M40.5 2h-33C4.394 2 2 4.394 2 7.5v33C2 43.605 4.394 46 7.5 46h33c3.105 0 5.5-2.395 5.5-5.5v-33C46 4.394 43.605 2 40.5 2zM24.032 15.357c4.88 0 8.834 3.832 8.834 8.56 0 4.726-3.954 8.561-8.834 8.561-4.876 0-8.832-3.835-8.832-8.56.001-4.73 3.957-8.561 8.832-8.561zM40.5 39.125c0 .964-.413 1.375-1.375 1.375H8.875c-.961 0-1.375-.411-1.375-1.375v-19.25l3.428.745a12.834 12.834 0 00-.568 3.775c0 7.312 6.124 13.246 13.672 13.246 7.551 0 13.673-5.933 13.673-13.246 0-1.314-.2-2.578-.567-3.775l3.362-.745v19.25zm0-24.75c0 .76-.615 1.375-1.375 1.375h-5.5c-.76 0-1.375-.615-1.375-1.375v-5.5c0-.76.615-1.375 1.375-1.375h5.5c.76 0 1.375.615 1.375 1.375v5.5z"/></symbol><symbol xmlns="http://www.w3.org/2000/svg" viewBox="0 0 48 48" id="icon_linkedin"><path d="M46 45.026V28.758c0-8.717-4.653-12.773-10.857-12.773-5.006 0-7.25 2.754-8.5 4.687v-4.02H17.21c.125 2.663 0 28.376 0 28.376h9.433V29.18c0-.846.06-1.694.31-2.3.681-1.695 2.233-3.45 4.838-3.45 3.414 0 4.778 2.602 4.778 6.416v15.182H46v-.002zM7.273 12.777c3.288 0 5.338-2.18 5.338-4.904-.06-2.783-2.049-4.9-5.275-4.9C4.111 2.972 2 5.087 2 7.872c0 2.724 2.047 4.904 5.214 4.904h.06zm4.716 32.25V16.65H2.56v28.376h9.43z"/></symbol><symbol xmlns="http://www.w3.org/2000/svg" viewBox="0 0 48 48" id="icon_medium"><path d="M32.225 36.185l12.897 6.447c.023.012.044.02.062.027a.593.593 0 00.004-.067V15.12L32.225 36.185zm-.811-30.323L22.262 20.67l8.801 14.303 13.782-22.396-13.431-6.715zM16.938 28.55l11.942 5.97-11.942-19.403V28.55zM2 35.595c0 .202.198.522.379.613l12.87 6.434a.444.444 0 00.061.028.574.574 0 00.004-.068V12.75L2.001 6.092v29.503z"/></symbol><symbol xmlns="http://www.w3.org/2000/svg" viewBox="0 0 48 48" id="icon_pinterest"><path d="M40.848 16.04c0 9.613-5.344 16.797-13.224 16.797-2.647 0-5.135-1.43-5.987-3.056 0 0-1.424 5.647-1.722 6.738-1.062 3.85-4.183 7.702-4.424 8.02-.17.22-.543.15-.583-.14-.068-.491-.863-5.351.073-9.315l3.152-13.355s-.781-1.565-.781-3.877c0-3.633 2.104-6.344 4.725-6.344 2.23 0 3.306 1.672 3.306 3.679 0 2.242-1.426 5.592-2.163 8.696-.615 2.6 1.304 4.721 3.868 4.721 4.643 0 7.77-5.965 7.77-13.03 0-5.371-3.617-9.393-10.198-9.393-7.432 0-12.065 5.544-12.065 11.738 0 2.136.63 3.642 1.617 4.806.452.536.516.751.352 1.367-.12.452-.387 1.536-.501 1.967-.163.621-.666.842-1.227.613-3.423-1.397-5.019-5.148-5.019-9.363C7.82 10.348 13.69 2 25.333 2c9.359 0 15.515 6.77 15.515 14.04z"/></symbol><symbol xmlns="http://www.w3.org/2000/svg" viewBox="0 0 48 48" id="icon_search"><path d="M21.975 39.95C11.495 39.95 3 31.455 3 20.975 3 10.495 11.495 2 21.975 2c10.48 0 18.975 8.495 18.975 18.975 0 5.24-2.124 9.984-5.558 13.417l8.924 8.924a1.56 1.56 0 01-.017 2.215 1.563 1.563 0 01-2.215.017l-9.11-9.11a18.889 18.889 0 01-10.999 3.512zm0-2.232c9.247 0 16.743-7.496 16.743-16.743 0-9.247-7.496-16.743-16.743-16.743-9.247 0-16.743 7.496-16.743 16.743 0 9.247 7.496 16.743 16.743 16.743z"/></symbol><symbol xmlns="http://www.w3.org/2000/svg" viewBox="0 0 48 48" id="icon_share"><g><path d="M13.858 32.337h2.77c1.928-10.935 11.453-19.25 22.941-19.25.481 0 .94.004 1.401.008l-5.038 5.037a1.373 1.373 0 00.972 2.347c.352 0 .704-.135.972-.403L46 11.74l-8.122-8.337a1.373 1.373 0 00-1.944 0 1.373 1.373 0 000 1.944l4.992 4.993c-.437-.002-.852-.004-1.3-.004-13.02.001-23.785 9.537-25.768 22.001z"/><path d="M42.333 21.333c-.916 0-.916.917-.916.917v21.083H3.833V14h13.75s.917 0 .917-.917c0-.916-.917-.916-.917-.916H2v33h41.25V22.25c0-.038 0-.917-.917-.917z"/></g></symbol><symbol xmlns="http://www.w3.org/2000/svg" viewBox="0 0 48 48" id="icon_square"><path d="M2 4l2-2v44l-2-2h44l-2 2V2l2 2H2zm0-2h44v44H2V2z"/></symbol><symbol xmlns="http://www.w3.org/2000/svg" viewBox="0 0 48 48" id="icon_triangle"><path d="M22.809 8.84l.488-.753h1.406l.488.754L4.382 41H3.088l-.497-.913L3.294 39h41.412l.703 1.087-.497.913h-1.294L22.808 8.84zM24 7l22 34H2L24 7z"/></symbol><symbol xmlns="http://www.w3.org/2000/svg" viewBox="0 0 48 48" id="icon_tumblr"><path d="M25.125 2v11h11v6.875h-11v11c0 2.555.243 4.606.514 5.332.271.724.773 1.301 1.511 1.738.978.586 2.09.88 3.347.88 2.232 0 4.828-.759 7.004-2.449v6.875c-1.832 1.147-3.935 1.86-5.463 2.216-1.527.354-3.178.533-4.952.533-1.855 0-3.647-.203-5.343-.764-1.55-.51-2.415-1.073-3.51-2.012-1.091-.943-1.623-1.89-2.046-2.952-.421-1.058-.687-3.256-.687-5.272V19.875H10V13c1.761-.13 3.217-.626 4.447-1.672a12.038 12.038 0 002.973-3.787c.749-1.474.83-3.278.83-5.541h6.875z"/></symbol><symbol xmlns="http://www.w3.org/2000/svg" viewBox="0 0 48 48" id="icon_twitter"><path d="M23.363 15.73l.097 1.573-1.59-.192c-5.785-.738-10.84-3.245-15.133-7.457L4.639 7.566l-.54 1.543c-1.145 3.438-.413 7.071 1.97 9.515 1.271 1.35.984 1.542-1.208.738-.763-.256-1.431-.45-1.494-.354-.222.226.54 3.15 1.144 4.308.826 1.61 2.51 3.182 4.356 4.116l1.558.738-1.844.032c-1.78 0-1.844.031-1.653.708.635 2.088 3.147 4.308 5.944 5.272l1.97.673-1.716 1.029c-2.542 1.48-5.531 2.315-8.52 2.377-1.43.032-2.606.161-2.606.259 0 .32 3.879 2.119 6.135 2.828 6.772 2.089 14.816 1.188 20.856-2.379 4.293-2.54 8.583-7.585 10.588-12.472 1.082-2.602 2.161-7.36 2.161-9.64 0-1.48.096-1.672 1.876-3.44 1.05-1.028 2.035-2.152 2.226-2.474.319-.612.285-.612-1.335-.065-2.702.965-3.084.836-1.748-.61.985-1.029 2.162-2.893 2.162-3.44 0-.096-.476.064-1.018.354-.572.32-1.844.802-2.798 1.09l-1.716.548-1.558-1.062c-.86-.577-2.065-1.22-2.702-1.413-1.622-.45-4.103-.387-5.566.128-3.973 1.446-6.484 5.175-6.2 9.256z"/></symbol><symbol xmlns="http://www.w3.org/2000/svg" viewBox="0 0 48 48" id="icon_vsco"><g><path d="M5.383 27.391a3.384 3.384 0 010-6.766 3.383 3.383 0 010 6.766M33.296 36.696a3.385 3.385 0 01-.001-6.767 3.385 3.385 0 01.001 6.767M42.6 27.393a3.384 3.384 0 11-.002-6.767 3.384 3.384 0 11.002 6.767M23.873 27.274a3.385 3.385 0 11-.001-6.769 3.385 3.385 0 01.001 6.769m0-18a3.385 3.385 0 11-.001-6.769 3.385 3.385 0 01.001 6.769m0 36a3.385 3.385 0 11-.001-6.769 3.385 3.385 0 01.001 6.769M14.57 36.578a3.384 3.384 0 11-.001-6.768 3.384 3.384 0 010 6.768M33.178 17.97a3.384 3.384 0 11-.003-6.768h.002a3.384 3.384 0 010 6.768M14.687 18.087a3.384 3.384 0 112.392-5.776 3.385 3.385 0 01-2.392 5.776"/></g></symbol><symbol xmlns="http://www.w3.org/2000/svg" viewBox="0 0 48 48" id="icon_work"><g transform="translate(2 3)"><path d="M40.333 35.75H3.667C1.645 35.75 0 34.062 0 31.987V3.763C0 1.688 1.645 0 3.667 0h36.666C42.356 0 44 1.688 44 3.763v28.224c0 2.075-1.645 3.763-3.667 3.763zM3.667 1.833c-1.011 0-1.834.847-1.834 1.888v28.308c0 1.041.823 1.888 1.834 1.888h36.666c1.011 0 1.834-.847 1.834-1.888V3.721c0-1.041-.823-1.888-1.834-1.888H3.667zM34.833 41.25H9.167a.917.917 0 010-1.833h25.666a.917.917 0 010 1.833z"/><path d="M28.435 41.25H15.583a.919.919 0 01-.87-1.207l1.834-5.5a.917.917 0 01.87-.626h9.166c.395 0 .745.252.87.627l1.779 5.336a.916.916 0 01-.797 1.37zm-11.58-1.833h10.29l-1.222-3.667h-7.845l-1.223 3.667zm25.312-12.834H1.833V24.75h40.334v1.833z"/><circle cx="22" cy="30.25" r="1.833"/></g></symbol><symbol xmlns="http://www.w3.org/2000/svg" viewBox="0 0 48 48" id="icon_xing"><path d="M29.09 46l-9.841-17.25L34.52 2H44.8L29.528 28.75 39.368 46H29.09zM12.934 32.696l7.635-12.57-5.725-10.086h-9.69l5.725 10.086-7.635 12.57h9.691z"/></symbol><symbol xmlns="http://www.w3.org/2000/svg" viewBox="0 0 256 256" id="logo_fork"><path d="M225.255 150.957l-16.308-32.21v-14.25H256v46.429h-30.745v.031zm-37.885-28.593l11.693 16.245-6.143 12.317h-1.279l-16.276-23.48v-.28l18.46-17.556-4.086-1.902v-3.055h15.622v3.274l-3.523 1.278-14.468 13.159zm-13.44 24.352l4.522.936v3.274h-23.449v-3.18l4.147-.811V110.42l-4.147-2.681v-3.055h23.449v3.274l-4.522 1.278v37.48zm-52.447-16.526h-4.116v16.526l4.927.936v3.274h-24.54v-3.18l4.584-.998v-37.106l-4.584-1.902v-3.056c2.526 0 5.52-.031 7.608-.094 2.09-.062 3.991-.124 5.675-.156.717 0 1.653-.03 2.713-.062 1.091-.062 2.183-.094 3.336-.125 1.154-.03 2.246-.093 3.306-.124 1.06-.063 1.964-.063 2.681-.063 3.025 0 5.831.156 8.388.5 2.557.342 4.74.935 6.61 1.808 1.872.873 3.306 2.058 4.335 3.585 1.029 1.528 1.559 3.43 1.559 5.738 0 1.497-.28 2.869-.78 4.147a11.816 11.816 0 01-2.182 3.461 14.548 14.548 0 01-3.243 2.744 20.755 20.755 0 01-3.991 1.996 304.143 304.143 0 006.236 9.323c2.245 3.212 4.521 6.361 6.86 9.386l3.68 1.029v3.211h-15.342l-13.72-20.798zm8.17-16.339c-.343-1.278-.873-2.37-1.622-3.336a8.338 8.338 0 00-2.713-2.277c-1.091-.56-2.37-.841-3.897-.841-.78 0-1.56.03-2.308.093-.748.062-1.34.156-1.746.218v18.865h2.62c1.933 0 3.554-.218 4.864-.686 1.31-.468 2.338-1.091 3.149-1.87a6.969 6.969 0 001.684-2.745c.343-1.06.53-2.182.53-3.398a16.92 16.92 0 00-.561-4.023zm-42.657 31.275c-2.37 2.339-5.27 4.147-8.762 5.488-3.46 1.31-7.452 1.965-11.942 1.965-3.96 0-7.421-.655-10.446-1.934-3.025-1.278-5.52-3.055-7.546-5.27-2.027-2.213-3.555-4.77-4.584-7.701-1.029-2.9-1.559-5.956-1.559-9.199 0-3.804.718-7.265 2.152-10.352 1.434-3.087 3.367-5.737 5.862-7.92s5.394-3.898 8.762-5.114c3.368-1.216 6.922-1.808 10.758-1.808 3.773 0 7.171.53 10.165 1.59 3.024 1.06 5.581 2.588 7.733 4.584 2.12 1.995 3.773 4.427 4.926 7.296 1.154 2.869 1.715 6.05 1.715 9.604 0 3.742-.623 7.234-1.84 10.446-1.215 3.211-3.024 5.987-5.394 8.325zm-7.109-24.072c-.374-2.65-1.06-4.989-2.027-6.985-.998-1.995-2.338-3.585-4.053-4.74-1.715-1.153-3.93-1.745-6.642-1.745-1.871 0-3.524.499-4.927 1.496-1.434 1.03-2.588 2.339-3.523 3.992-.905 1.652-1.59 3.585-2.027 5.768-.437 2.214-.655 4.522-.655 6.985 0 7.11 1.123 12.597 3.399 16.432 2.276 3.836 5.425 5.738 9.48 5.738 2.244 0 4.115-.561 5.58-1.715 1.466-1.123 2.651-2.588 3.524-4.366.873-1.777 1.497-3.741 1.871-5.924.374-2.183.561-4.334.561-6.455-.03-2.993-.218-5.83-.561-8.48zm-43.311-6.204l-5.207-6.05h-11.85v16.184h9.417l3.43-4.272 1.59.561.032 13.034-1.933.468-3.087-4.99H19.52v16.87l5.394 1.31v2.93H0v-2.837l4.77-1.528v-37.45L0 107.334v-2.713h38.447v9.199l-1.871 1.029z"/></symbol><symbol xmlns="http://www.w3.org/2000/svg" viewBox="0 0 256 256" id="logo_nexumag"><g><path d="M0 0h256v256H0z"/><path d="M35.382 158.526h9.193v-24.282c0-1.561-.174-2.949-.347-4.336-.174-1.388-.694-2.602-1.388-3.816a8.029 8.029 0 00-2.775-2.602c-1.214-.693-2.775-1.04-4.683-1.04-1.56 0-2.948.173-4.162.694-1.215.52-2.255 1.04-3.296 1.734-1.04.867-1.908 1.734-2.601 2.775-.694 1.04-1.388 2.255-2.082 3.469h-.173v-7.805h-9.366v35.035h9.366v-13.875c0-.867 0-1.734.173-2.775 0-1.04.174-2.255.52-3.469.174-1.214.521-2.255.868-3.469.347-1.04.867-2.081 1.387-3.122.52-.867 1.388-1.56 2.082-2.255.867-.52 1.734-.867 2.948-.867 1.04 0 1.908.173 2.428.867.52.52.868 1.214 1.214 1.908.174.868.347 1.561.347 2.428v24.803h.347zm20.12-21.334h21.68v-1.387c0-2.255-.347-4.163-1.041-5.897s-1.734-3.122-2.949-4.163c-1.214-1.04-2.775-1.908-4.682-2.428-1.908-.52-3.816-.867-6.07-.867-2.776 0-5.204.347-7.285 1.214-2.082.694-3.643 1.908-5.03 3.295-1.388 1.388-2.255 3.296-2.949 5.204-.693 2.08-.867 4.51-.867 7.11 0 2.776.347 5.55 1.04 7.98.695 2.427 1.909 4.509 3.47 6.417 1.56 1.734 3.468 3.122 5.723 4.162s5.03 1.561 8.326 1.561c1.214 0 2.254 0 3.295-.173 1.04 0 1.908-.174 2.775-.347.867-.174 1.734-.52 2.775-.694.867-.347 1.908-.694 2.949-1.214v-3.642c-1.215.347-2.428.867-3.47 1.04-1.213.347-2.427.52-3.641.52-1.561 0-2.949-.173-4.337-.693-1.214-.52-2.428-1.214-3.468-2.081-1.041-.868-1.908-1.908-2.776-3.122-.867-1.214-1.387-2.428-1.907-3.642-.52-1.388-.868-2.602-1.215-3.99-.173-1.561-.347-2.948-.347-4.163zm12.834-3.815H55.501c.174-.868.347-1.735.694-2.602.347-.867.694-1.734 1.214-2.428s1.214-1.214 1.908-1.734c.867-.347 1.734-.694 2.775-.694 1.04 0 1.908.173 2.775.694.694.347 1.388 1.04 1.908 1.734s.867 1.561 1.04 2.428c.348.867.521 1.734.521 2.602zm35.729 25.149h10.753l-13.528-18.732 12.14-16.477h-9.365l-7.111 9.886-6.764-9.713H79.436l11.968 16.824L77.875 158.7h9.54l8.498-11.794 8.152 11.62zm33.3 0h9.887v-16.477c0-1.04.173-2.082.173-3.296.174-1.214.347-2.254.694-3.468.347-1.215.694-2.255 1.214-3.123.52-.867 1.041-1.734 1.908-2.254.694-.52 1.735-.867 2.775-.867 1.041 0 1.908.173 2.429.867.52.52.867 1.214 1.214 1.908.173.867.347 1.56.347 2.428v24.282h9.192v-18.212c0-.867.173-1.907.347-2.948.173-1.04.347-2.081.694-2.949.346-1.04.693-1.907 1.214-2.601.52-.868 1.04-1.388 1.908-1.908.693-.52 1.56-.694 2.601-.694.868 0 1.561.173 2.082.694.52.52.867 1.04 1.214 1.734.173.694.346 1.388.52 2.255 0 .694.173 1.388.173 2.081V158.7h9.366v-23.588c0-1.561-.173-3.122-.347-4.51-.173-1.56-.693-2.775-1.387-3.989-.694-1.214-1.561-2.08-2.775-2.775-1.214-.694-2.775-1.04-4.683-1.04-1.561 0-2.775.173-3.816.693-1.04.347-1.908 1.041-2.775 1.735a7.678 7.678 0 00-2.081 2.601c-.694 1.041-1.214 2.082-1.734 3.296h-.174c-.173-1.214-.52-2.429-1.04-3.296-.521-1.04-1.041-1.907-1.909-2.601-.693-.694-1.734-1.388-2.775-1.735-1.04-.346-2.254-.693-3.642-.693-1.387 0-2.602.173-3.816.693-1.04.52-2.08 1.041-2.948 1.908-.867.868-1.734 1.735-2.255 2.775-.694 1.041-1.04 2.082-1.56 3.296h-.174v-7.805h-9.886v13.875c0 .694 0 1.735-.174 2.775 0 1.04-.173 2.082-.347 3.296-.173 1.214-.52 2.254-.867 3.468-.347 1.215-.694 2.255-1.387 3.123-.52.867-1.215 1.734-2.082 2.254-.694.52-1.734.867-2.775.867-1.04 0-1.908-.173-2.428-.693a7.7 7.7 0 01-1.388-1.908c-.346-.694-.52-1.561-.693-2.428-.174-.868-.174-1.735-.174-2.429V123.49h-9.192v24.11c0 1.56.173 3.122.52 4.683.347 1.387.867 2.601 1.56 3.642.695 1.04 1.735 1.908 3.123 2.428 1.214.694 2.775.867 4.856.867 1.561 0 2.775-.173 3.99-.693 1.214-.52 2.08-1.041 3.121-1.908.868-.868 1.735-1.735 2.429-2.775a32.207 32.207 0 001.907-3.296h.174v7.979h-.347zM23.241 185.583c0 .693-.173 1.387-.347 2.08-.346.695-.693 1.215-1.387 1.562a3.463 3.463 0 01-1.561.347H17.17c0-1.214 0-2.602-.174-3.816v-3.816h1.388c1.387 0 2.601.174 3.468.694.868.347 1.388 1.388 1.388 2.949zm-.694-10.06c0 1.388-.346 2.255-1.04 2.948-.694.694-1.735 1.041-2.949 1.041h-1.387v-7.457h1.734c1.214 0 2.081.172 2.775.866.52.52.867 1.388.867 2.602zm3.99 9.886c0-1.56-.52-2.775-1.214-3.642-.868-.867-2.082-1.387-3.643-1.561a4.67 4.67 0 003.122-1.734c.694-.868.867-2.082.867-3.47 0-1.907-.52-3.295-1.734-3.988-1.04-.694-2.601-1.215-4.336-1.041h-5.723l-.174.173c0 1.041.174 2.082.174 3.123v18.384l.173.173h3.469c1.04 0 2.081 0 3.122-.173 1.04-.174 2.081-.347 2.948-.868.867-.52 1.561-1.214 2.255-2.255l.52-1.56c.174-.348.174-1.042.174-1.562zm10.58-3.469h-5.55c0-.693.173-1.387.346-1.907.174-.694.52-1.215 1.04-1.735.174-.173.521-.347.695-.52.346-.174.52-.174.867-.174.694 0 1.387.174 1.734.694s.694 1.04.694 1.734c.174.694.174 1.388.174 1.908zm2.948 1.908c0-1.387 0-2.601-.347-3.989-.173-1.387-.867-2.428-2.081-3.295-.52-.347-1.04-.52-1.561-.694-.52-.173-1.04-.173-1.734-.173-1.561 0-2.776.52-3.643 1.387s-1.56 1.908-1.908 3.122c-.346 1.214-.52 2.602-.52 3.99 0 1.56.174 2.774.694 4.162.52 1.214 1.214 2.255 2.255 2.948 1.04.694 2.428 1.041 3.989 1.214.693 0 1.387 0 2.08-.173.695-.173 1.388-.347 1.909-.694l.173-.173v-1.04l.174-1.041-.174-.174c-.52.347-1.04.694-1.56.867-.521.174-1.215.347-1.735.347-1.734 0-2.949-.694-3.642-1.734-.694-1.04-1.041-2.428-1.041-3.99h8.499l.173-.867zm10.58-7.978l-.174-.174c-.173 0-.346-.173-.52-.173h-.52c-.867 0-1.735.347-2.255.867-.52.694-.867 1.388-1.214 2.082v-2.776l-.174-.173c-.52.173-1.04.173-1.56.347-.521.173-1.041.173-1.562.173l-.173.174c.173 1.387.173 2.775.173 4.336v7.632c0 1.213 0 2.254-.173 3.468l.173.174h2.775l.174-.174-.174-4.162v-4.337c0-.693 0-1.387.174-2.08.173-.695.52-1.388 1.04-1.909.174-.173.347-.346.694-.346.174-.174.52-.174.694-.174.347 0 .52 0 .694.173.173 0 .52.174.694.347l.173-.173c0-.52 0-1.04.174-1.561.694-.52.694-1.04.867-1.561zm9.366 12.661c-.347.347-.694.694-1.214.867-.347.174-.867.347-1.388.347-.867 0-1.387-.347-1.908-.867-.52-.52-.693-1.214-.693-1.908 0-1.04.346-1.908.693-2.428.52-.52 1.215-.867 1.908-1.04a56.594 56.594 0 012.428-.521v5.55h.174zm3.122 3.122c-.174-1.908-.174-3.642-.174-5.55v-5.55c0-1.734-.347-2.949-1.04-3.816-.694-.867-1.908-1.214-3.643-1.214-.867 0-1.56 0-2.254.173-.694.174-1.561.347-2.255.694l-.174.174v1.04c0 .347 0 .694-.173 1.04l.173.174a8.108 8.108 0 011.735-.867c.694-.173 1.387-.347 1.908-.347 1.04 0 1.734.173 2.08.694.348.52.521 1.214.521 2.255v.346l-1.387.174c-1.214.173-2.255.52-3.296.867-1.04.347-1.908 1.04-2.428 1.908-.694.867-.867 1.908-.867 3.122 0 1.388.347 2.602 1.214 3.469.694.867 1.908 1.388 3.295 1.388.694 0 1.388-.174 1.908-.347.694-.174 1.214-.52 1.735-1.041v1.04l.173.174h2.949zm9.366-2.255l-.174-.173c-.173.173-.347.173-.52.347h-.52c-.868 0-1.215-.347-1.388-1.04-.174-.695-.174-1.215-.174-1.909v-8.672h2.429l.173-.173c0-.694 0-1.388.174-1.908l-.174-.174h-2.602v-2.254c0-.694 0-1.561.174-2.255l-.174-.174-1.387.347c-.52.174-.867.174-1.388.347l-.173.174v3.815h-1.561l-.174.174v2.081l.174.174h1.734v9.539c0 1.214.174 2.428.694 3.122.52.867 1.388 1.214 2.775 1.387h1.041c.347 0 .694-.173 1.04-.173l.174-.173v-1.041c-.173-.694-.173-1.04-.173-1.388zm13.181 2.255v-15.436l-.173-.174h-2.775l-.174.174c0 1.56.174 2.948.174 4.51v7.63c-.52.52-.867.867-1.388 1.04-.52.174-1.04.347-1.56.347-1.041 0-1.909-.52-2.082-1.214-.174-.867-.347-1.734-.347-2.601v-5.03c0-1.735 0-3.296.174-5.03l-.174-.174H74.58l-.173.174v10.061c0 1.04 0 1.907.347 2.775.173.867.52 1.56 1.214 2.254.52.52 1.56.868 2.775.868.867 0 1.734-.174 2.428-.52.694-.348 1.387-.694 1.908-1.388v1.56l.173.174h2.775-.347zm14.916-.173c0-1.041 0-2.082-.173-3.296v-7.805c0-.52 0-.867-.174-1.387-.173-1.04-.52-2.081-1.04-2.775-.694-.694-1.561-1.04-2.602-1.04-.867 0-1.734.173-2.428.52-.694.346-1.388.867-2.082 1.387v-1.735l-.173-.173c-.52 0-1.04.174-1.561.174-.52 0-1.04.173-1.561.173l-.174.173c.174 1.215.174 2.602.174 3.816v11.447l.173.174h2.776l.173-.174v-11.794c.347-.346.867-.867 1.387-1.04a3.347 3.347 0 011.735-.52c.694 0 1.04.173 1.387.52.347.347.52.867.694 1.387v11.621l.174.173h2.775l.52.174zm11.447 2.428c0 .867-.347 1.56-1.04 1.908-.694.347-1.388.694-2.082.694-.867 0-1.56-.174-2.08-.694-.694-.52-.868-1.04-1.041-1.908 0-.694.173-1.388.52-1.908.347-.52.867-1.04 1.388-1.387.52.173 1.214.346 1.734.693.694.174 1.214.52 1.734 1.04.52.348.694.868.867 1.562zm-.693-12.488c0 .867-.174 1.561-.52 2.255-.348.694-1.041 1.04-1.909 1.04-1.04 0-1.56-.346-2.08-1.214-.348-.694-.695-1.56-.521-2.428 0-.867.173-1.56.52-2.428.347-.694 1.04-1.04 1.908-1.214.694 0 1.214.173 1.561.694.347.346.694.867.867 1.387.174.694.174 1.388.174 1.908zm3.989-5.377l-.174-.173h-6.937c-.52 0-1.041.173-1.561.347-1.041.347-1.908 1.04-2.429 2.081a5.99 5.99 0 00-.867 3.122c0 1.04.174 1.908.694 2.602.52.867 1.214 1.387 2.081 1.907-.347.52-.52 1.041-.867 1.388-.347.52-.52 1.04-.867 1.387v.347c.173.174.346.347.693.347.174.174.52.174.694.347-.694.52-1.387 1.04-1.908 1.734-.52.694-.867 1.561-.867 2.429 0 1.04.347 1.908.867 2.428.52.694 1.388 1.04 2.255 1.387s1.734.347 2.602.347c1.04 0 1.907-.173 2.948-.52.867-.347 1.734-.867 2.428-1.561s.868-1.561.868-2.775-.347-2.255-1.215-2.949c-.693-.693-1.734-1.214-2.775-1.56-1.04-.348-2.081-.694-3.122-1.041l-.694-.347v-.174l.52-1.214h1.041c1.562 0 2.776-.52 3.643-1.387.867-.868 1.387-2.082 1.56-3.643 0-.693-.173-1.387-.346-2.08-.347-.694-.694-1.215-1.388-1.562h1.215c.347 0 .867 0 1.214.174l.173-.174v-.867c.52.174.52-.173.52-.347zm18.038 11.794c-.52.52-.868.868-1.388 1.215a2.93 2.93 0 01-1.734.52c-.867 0-1.561-.347-2.081-1.04-.52-.695-.868-1.388-.868-2.256 0-.867.347-1.734.694-2.254.52-.52 1.04-1.04 1.908-1.561l3.469 5.376zm-.347-12.314c0 .867-.347 1.561-.694 2.081-.52.52-1.04 1.04-1.734 1.561-.347-.52-.694-1.04-.868-1.734-.347-.52-.347-1.214-.347-1.908s.174-1.214.52-1.561c.348-.52.868-.694 1.388-.694.694 0 1.041.174 1.388.694.173.52.347 1.04.347 1.561zm6.244 16.13c-.52-.694-.868-1.214-1.388-1.908-.52-.52-.867-1.214-1.387-1.908.52-.52.867-1.214 1.214-1.734.347-.694.694-1.214 1.04-1.908v-.347c-.346-.347-.52-.694-.693-1.04-.174-.347-.52-.694-.694-1.041h-.173c-.174.694-.347 1.388-.694 2.081-.347.694-.694 1.214-1.214 1.908-.52-.867-1.04-1.56-1.561-2.255-.52-.693-1.04-1.56-1.561-2.428.173-.173.52-.347.694-.52.173-.173.52-.347.693-.52.694-.52 1.214-1.215 1.561-1.908.347-.694.52-1.561.694-2.429 0-1.387-.347-2.428-1.214-3.122-.867-.693-1.908-1.04-3.122-1.04-1.388 0-2.602.52-3.296 1.214-.867.867-1.214 1.908-1.214 3.295 0 .868.174 1.735.52 2.428a15.84 15.84 0 001.388 2.255c-1.214.694-2.081 1.561-2.948 2.428-.867.868-1.214 2.082-1.214 3.47 0 1.56.52 2.774 1.387 3.815.867 1.04 2.255 1.561 3.816 1.561 1.04 0 1.908-.173 2.775-.694.867-.347 1.734-.867 2.428-1.56l.52.867c.174.346.347.52.694.867l.347.173c.52 0 1.04 0 1.561-.173 0 .173.52.173 1.04.173zm23.588-.173c-.347-.52-.868-1.041-1.214-1.561-.347-.52-.868-1.041-1.214-1.735a26.487 26.487 0 01-1.908-2.775 17.191 17.191 0 01-1.908-2.948l-1.735-2.775c1.214-1.561 2.255-3.122 3.47-4.683 1.213-1.561 2.254-3.122 3.468-4.683v-.173H158.7l-.347.173c-.52.694-.867 1.561-1.387 2.255l-2.602 3.642-2.601 3.642v-9.712l-.174-.174h-3.122l-.174.173c0 2.255.174 4.337.174 6.591v14.743l.173.173h3.122l.174-.173c0-1.735-.174-3.642-.174-5.377v-5.377l2.082 3.296c.693 1.04 1.387 2.254 2.254 3.295.52.694 1.041 1.387 1.388 2.081.52.694.867 1.388 1.387 2.082l.174.173h3.642l.174-.173zm9.192-15.61l-.173-.174c-.174 0-.347-.173-.52-.173h-.521c-.867 0-1.734.347-2.255.867-.52.694-.867 1.388-1.214 2.082v-2.776l-.173-.173c-.52.173-1.041.173-1.561.347-.52.173-1.041.173-1.561.173l-.174.174c.174 1.387.174 2.775.174 4.336v7.632c0 1.213 0 2.254-.174 3.468l.174.174h2.775l.173-.174-.173-4.162v-4.337c0-.693 0-1.387.173-2.08.173-.695.52-1.388 1.04-1.909.174-.173.348-.346.695-.346.173-.174.52-.174.867-.174.173 0 .52 0 .694.173.173 0 .52.174.693.347l.174-.173c0-.52 0-1.04.173-1.561.52-.52.52-1.04.694-1.561zm10.06 6.07h-5.55c0-.693.173-1.387.347-1.907.173-.694.52-1.215 1.04-1.735.174-.173.52-.347.694-.52.347-.174.52-.174.867-.174.694 0 1.388.174 1.735.694.346.52.693 1.04.693 1.734.174.694.174 1.388.174 1.908zm3.122 1.908c0-1.387 0-2.601-.347-3.989-.174-1.387-.867-2.428-2.081-3.295-.52-.347-1.041-.52-1.561-.694-.52-.173-1.041-.173-1.735-.173-1.56 0-2.775.52-3.642 1.387s-1.561 1.908-1.908 3.122-.52 2.602-.52 3.99c0 1.56.173 2.774.694 4.162.52 1.214 1.214 2.255 2.254 2.948 1.04.694 2.429 1.041 3.99 1.214.693 0 1.387 0 2.08-.173.694-.173 1.388-.347 1.909-.694l.173-.173v-1.04l.173-1.041-.173-.174c-.52.347-1.04.694-1.561.867-.52.174-1.214.347-1.734.347-1.735 0-2.949-.694-3.643-1.734-.693-1.04-1.04-2.428-1.04-3.99h8.498l.174-.867zm9.886 4.683c-.347.347-.694.694-1.214.867-.347.174-.867.347-1.388.347-.867 0-1.387-.347-1.907-.867-.347-.52-.694-1.214-.694-1.908 0-1.04.347-1.908.867-2.428s1.214-.867 1.908-1.04c.867-.174 1.56-.348 2.428-.521v5.55zm3.122 3.122c-.174-1.908-.174-3.642-.174-5.55v-5.55c0-1.734-.346-2.949-1.04-3.816-.694-.867-1.908-1.214-3.643-1.214-.693 0-1.56 0-2.254.173-.694.174-1.561.347-2.255.694l-.173.174v1.04c0 .347 0 .694-.174 1.04l.173.174a8.108 8.108 0 011.735-.867c.694-.173 1.387-.347 1.908-.347 1.04 0 1.734.173 2.081.694.347.52.52 1.214.52 2.255v.346l-1.387.174c-1.214.173-2.255.52-3.296.867-1.04.347-1.907 1.04-2.428 1.908-.694.867-.867 1.908-.867 3.122 0 1.388.347 2.602 1.214 3.469.694.867 1.908 1.388 3.296 1.388.693 0 1.387-.174 1.907-.347.694-.174 1.214-.52 1.735-1.041v1.04l.173.174h2.949zm9.366-2.255l-.174-.173c-.173.173-.347.173-.52.347h-.52c-.868 0-1.215-.347-1.388-1.04-.173-.695-.174-1.215-.174-1.909v-8.672h2.429l.173-.173c0-.694 0-1.388.174-1.908l-.174-.174h-2.602v-2.254c0-.694 0-1.561.174-2.255l-.347-.174-1.387.347c-.52.174-.868.174-1.388.347l-.173.174v3.815h-1.388l-.173.174v2.081l.173.174h1.735v9.539c0 1.214.173 2.428.693 3.122.52.867 1.388 1.214 2.776 1.387h1.04c.347 0 .694-.173 1.04-.173l.174-.173v-1.041c-.173-.694-.173-1.04-.173-1.388zm5.03 2.082c0-1.041-.174-2.082-.174-3.122V180.9c0-1.735 0-3.47.173-5.204l-.173-.173-3.122.52-.173.174c.173 2.254.173 4.51.173 6.764v3.295c0 1.735 0 3.47-.173 5.203l.173.174h3.122l.173-.173zm-.174-22.895l-.173-.173c-.868.173-1.908.173-2.775.347l-.174.173v2.775l.174.174c.52 0 .867-.174 1.387-.174s.867-.173 1.388-.173l.173-.174v-2.775zm12.314 14.916c0 .694 0 1.561-.173 2.602-.173 1.04-.347 1.734-.867 2.602-.52.693-1.214 1.04-2.082 1.214-1.04 0-1.734-.347-2.08-1.214-.521-.694-.695-1.561-.868-2.602-.174-1.04-.174-1.908-.174-2.602 0-.693 0-1.56.174-2.428.173-.867.52-1.734.867-2.428.52-.694 1.214-1.04 2.082-1.04.867 0 1.56.346 2.08 1.04.521.694.695 1.561.868 2.428.173 1.04.173 1.735.173 2.428zm3.296.52a17.15 17.15 0 00-.52-4.162c-.347-1.214-1.041-2.428-1.908-3.122-.868-.867-2.255-1.214-3.816-1.214-1.734 0-2.949.347-3.99 1.214-1.04.867-1.56 1.734-2.08 3.122-.347 1.214-.52 2.602-.52 4.163 0 1.387.173 2.775.52 4.162.346 1.388 1.214 2.429 2.428 3.296.52.347 1.04.52 1.56.693.521.174 1.215.174 1.735.174 1.561 0 2.775-.347 3.816-1.214.867-.694 1.56-1.735 2.081-2.949.52-1.387.694-2.775.694-4.162zm14.222 7.459c0-1.041-.173-2.082-.173-3.296v-7.805c0-.52 0-.867-.174-1.387-.173-1.04-.52-2.081-1.04-2.775-.694-.694-1.561-1.04-2.602-1.04-.867 0-1.734.173-2.428.52-.694.346-1.388.867-2.082 1.387v-1.735l-.173-.173c-.52 0-1.04.174-1.561.174-.52 0-1.04.173-1.561.173l-.173.173c0 1.215.173 2.602.173 3.816v11.447l.174.174h2.774l.174-.174v-11.794c.347-.346.867-.867 1.387-1.04a3.347 3.347 0 011.735-.52c.694 0 1.04.173 1.387.52.347.347.52.867.694 1.387v11.621l.174.173h2.775l.52.174z"/></g></symbol><symbol xmlns="http://www.w3.org/2000/svg" viewBox="0 0 256 256" id="logo_redbull"><defs><linearGradient id="bea" x1="5.918%" x2="93.773%" y1="50.023%" y2="50.023%"><stop stop-color="#1985C3" offset="0%"/><stop stop-color="#1983C1" offset="43.6%"/><stop stop-color="#197EBA" offset="59.3%"/><stop stop-color="#1A73AF" offset="70.5%"/><stop stop-color="#1A659E" offset="79.5%"/><stop stop-color="#1B5288" offset="87.3%"/><stop stop-color="#1C3B6D" offset="94%"/><stop stop-color="#1C3566" offset="95.5%"/><stop stop-color="#1C3566" offset="100%"/></linearGradient><linearGradient id="bec" x1="8.554%" x2="91.182%" y1="54.776%" y2="45.291%"><stop stop-color="#1985C3" offset="0%"/><stop stop-color="#1983C1" offset="43.6%"/><stop stop-color="#197EBA" offset="59.3%"/><stop stop-color="#1A73AF" offset="70.5%"/><stop stop-color="#1A659E" offset="79.5%"/><stop stop-color="#1B5288" offset="87.3%"/><stop stop-color="#1C3B6D" offset="94%"/><stop stop-color="#1C3566" offset="95.5%"/><stop stop-color="#1C3566" offset="100%"/></linearGradient><path id="beb" d="M60.85 73.404c-.01.007-.018.007-.03.002l.03-.002m31.653-62.36c.156-.208.318-.495.449-.726-.69 2.543-2.05 5.635-3.93 9.057-.447.687-.906 1.392-1.372 2.12-2.256 3.41-6.688 4.149-9.162 7.304-.591-.333-.754-.444-1.74.094-.247-1.523 2.219-3.618.24-4.557 1.993-4.334 5.513-7.707 8.497-11.423.177.781.682 1.072 1.34 1.072 2.037 0 5.541-2.768 5.678-2.94M70.307 24.776c-11.537 9.427-1.546 6.677-1.423 6.619 1.113-.427 2.122-1.085 2.585-1.4C60.579 42.111 29.505 55.54 6.514 45.95c-6.076-2.542-10.229-4.065 1.38 3.122-.131 0-.246-.036-.355-.074 4.94 2.478 11.065 5.822 7.968 5.93 0 .062 0 .166-.014.234l-.142-.05.155.077c.106.092.106.092 8.502 3.214-.525.197-.959 2.028 6.072 2.738 8.198.798 15.56-.128 22.388-2.103-14.37 9.978-31.045 16.314-47.55 13.085.428.16 1.02.404 1.457.573 3.837 1.336 6.313 1.839 10.12 2.123-.02.186-.042.427-.05.676 2.684 1.402 6.24.514 6.826.196 1.539-.79 2.12-.945 12.012-1.667-2.194 1.798-5.285.95-7.566 2.517.068.296.336.73.607.922 12.499-1.707 25.388-3.467 57.342-29.459a6.391 6.391 0 011.403-.796l-.077.073c-2.335 2.225-2.335 2.225-22.238 19.104-4.754 4.026-11.611 4.484-16.05 9.037.062.177.146.399.186.583l-.14.096.202-.065a8.275 8.275 0 003.09.104 244.896 244.896 0 00-7.277 3.127c0 .16-.152-.106-.048 1.034 5.63-1.295 16.805-2.737 24.179-7.148 10.967-6.03 31.654-24.243 41.264-44.167.224-.507.648-1.139 1.085-1.456l.028.528c.355.708.355.708-.654 4.313.784-1.683 1.368-3.394 1.87-5.15 1.822-16.566-9.102-22.67-11.62-23.828-1.303-.606-2.706-1.106-4.14-1.54 0 .01-.015.025-.015.045-.098-.062-.23-.098-.347-.155A53.246 53.246 0 0089.245.272c-4.813 11.415-11.073 18.103-18.93 24.504"/></defs><g><path d="M250.501 152.955c.26-.73.514-1.457.744-2.206l-.69 1.994c-.013.075-.037.147-.054.212m-106.443 11.452a9.079 9.079 0 00-2.016-1.018c0 .033.805.396 2.016 1.018m107.229-14.216l.016-.09.026-.107c.144-.56.266-1.13.395-1.678-4.628 14.214-14.615 25.001-20.757 30.593a16.033 16.033 0 002.358-1.884c-1.31 1.35-1.7 1.796-2.016 2.351a38.535 38.535 0 012.323-1.964c-.237.528-.237.528-5.2 5.405 6.18-5.462 16.236-14.317 21.693-28.85l.425-1.228c.284-.874.522-1.729.737-2.556m-103.844 15.835a88.455 88.455 0 00-3.38-1.618c1.11.628 2.139 1.306 3.38 1.618"/><path d="M250.095 154.097l.332-.905c.054-.148.089-.273.126-.442l-.458 1.347m-56.79-40.801c-.604.24-.975.407-1.475.741.045.01.104.018.15.034.85.14.85.14 4.269-1.154.073-.034.179-.065.26-.113-1.515.103-2.276.204-3.204.492M157 141.419l.089-.037a324.948 324.948 0 00-5.392 3.045c1.575-.938 3.71-2.135 5.303-3.008m30.264-33.06a.83.83 0 01-.411.107h-.016c.137-.038.293-.07.427-.106m15.511-3.43c-.105.02-.23.045-.333.09-.189.03-.394.069-.589.069.293-.06.62-.113.922-.16m1.822-.243c-.175 0-.355 0-.532-.01 2.605-.476 4.962-.838 7.089-1.073-.61.18-1.217.396-1.803.597-.21.067-.72.083-.955.21a.252.252 0 01-.232.183 5.958 5.958 0 00-.326.083c-.616.105-1.278.023-1.925.023-.33 0-.67-.014-1.02-.014-.089 0-.193.005-.293 0m-49.579-28.25c-9.026 3.299-20.261 9.09-29.757 17.714-2.703 2.47-5.27 4.783-9.677 6.779v-.022c-.468 1.08-1.058 2.578-1.518 3.646-.848 2.292-1.278 3.498-1.712 5.023 0 .104.047.257.102.37.683.07 1.988-.67 6.83-3.61 8.761-5.349 12.834-7.737 20.817-11.524-.64 2.332-1.664 3.713-4.29 5.792-.735.492-1.682 1.174-2.464 1.598-2.84 1.637-5.832 2.986-8.695 4.597-3.356 1.926-6.58 4.09-9.952 5.972-.303.167-.724.387-1.03.56-1.33.616-2.102.285-2.039-.948 0-.074.011-.148.03-.251-.17.669-.344 1.386-.57 2.234-1.268 5.649-1.511 10.486-1.71 14.338-.01 12.037 2.358 19.034 2.479 19.305.021.13.102.253.143.376.25.044.551.104.805.163.72 3.327.801 3.677 1.344 5.223 1.446 1.051.881 2.888 1.768 4.141a4.874 4.874 0 011.567-.299l-.726.245c.726.29 1.709.52 2.449.695-.085 2.68-.085 2.68.278 3.3.223-.148.516-.346.732-.495 4.135.894 4.135.894 6.24-.853l1.71-1.476c-1.732 2.027-1.732 2.027-1.571 3.501 1.249.178 1.249.178 26.256-17.235l-.027-.021c11.141-6.299 21.729-13.588 32.775-20.05-8.294 2.462-15.478 7.304-23.343 10.65-2.538 1.483-4.839 2.83-6.966 4.063-.04-.05-.097-.104-.14-.149-.045-.094-.337-.733-.53-.813-.123-.007-.224-.007-.33-.007-.13 0-.258 0-.405-.05-.472-.164-1.26-.286-1.754-.164-.125.023-.315.148-.413.214-.24.103-.378.183-.616.302-.24.06-.41.24-.664.301-.251.087-.562.048-.863 0h-.433c-.098 0-.737.052-.808 0-.17-.19.085-.603.154-.743a1.92 1.92 0 00.145-.508c.036-.115.093-.185.23-.192.086-.127.086-.18.152-.324.193-.447.737-.848 1.137-1.133.508-.37 1.1-.755 1.625-1.107.6-.376 1.236-.928 1.93-1.12.237-.058.51-.058.745-.115.304-.106.296-.2.435-.474.065-.148.164-.171.125-.323 0-.08-.851-.435-.983-.467a.314.314 0 01.101-.077c-.04.037-.09.044-.14.077-.274-.04-.177-.045-.406.032-.31.13-.57.227-.835.412-.307.233-.651.364-.97.557a2.607 2.607 0 00-.5.61c-.927.586-1.841 1.139-2.739 1.724a.455.455 0 01-.193.057c-.227.065-.411.036-.61.088-.603.127-1.232.383-1.82.553-.404.105-.977.173-1.333.47-.156.122-.263.273-.405.429-.258.285-.69.59-1.013.77-.393.224-.63.174-1.064.174h-.257c-.18.018-.336.047-.476-.01-.044-.013-.069-.013-.113.01-.058-.01-.058-.01-.131-.122-.007-.063 0-.26.042-.328.134-.225.419-.322.498-.625-.211-.26-1.142-.104-1.463 0a10.15 10.15 0 00-1.983.73c-.536.258-1.095.346-1.625.605-.71.33-1.14.087-1.893-.054-.01-.253-.01-.378.106-.566.106-.163.315-.309.422-.467a.398.398 0 00.088-.194c.257-.264.528-.585.79-.85.538-.546 1.34-.936 1.913-1.421a57.68 57.68 0 002.019-1.94c.114-.104.253-.187.367-.322.089.03.169 0 .237-.081.116-.109.095-.303.21-.434.07-.022.131-.09.177-.14.315-.3.623-.501.96-.725.178-.072.287-.207.38-.322.047-.146.047-.454-.04-.586-.224 0-.34.337-.446.44-.277.287-.654.408-1.002.608-.89.42-2.035.903-3.058.928a4.704 4.704 0 01-.887-.008c-.162-.013-.354-.013-.517-.013-.022 0-.755.059-.83 0-.162-.225.346-.908.447-1.02.199-.286.416-.567.634-.826.112-.125.2-.286.267-.44.12-.115.022-.064.255-.186.69-.4 1.343-.802 1.993-1.233.133-.106.287-.233.449-.247.154-.04.255 0 .394-.077.161-.104.334-.283.487-.386.762-.496 1.686-.826 2.506-1.26 1.115-.606 2.04-1.455 3.195-1.997.347-.2.717-.378 1.096-.51.26-.083.491-.12.735-.269.508-.393 1.051-.675 1.648-.96.583-.281 1.23-.482 1.807-.793.17-.098.292-.247.446-.343.15-.06.31-.096.467-.115.266-.151.552-.283.817-.422.227-.126.641-.312.883-.387.33-.125.555-.225.831-.403.29-.123.4-.215.531-.523.052-.147.187-.455.052-.61-.477-.04-1.014.25-1.438.447-.448.188-.904.305-1.332.5-.248.093-.448.242-.662.388-.134.056-.225.032-.325.02a.47.47 0 01-.185 0c-.182 0-.385.054-.57.149-.286.047-.578.154-.856.236-.555.192-1.136.512-1.637.835-.647.355-1.252.779-1.946 1.075-.808.4-1.657.855-2.527 1.092-.675.187-1.346.404-1.973.623-.414.141-.842.264-1.225.42-.209.087-.232.165-.386.294a1.994 1.994 0 01-.796.4c-.787.3-1.577.63-2.362.915-.264.046-.453.211-.723.237-.324.047-.702.018-1.076 0-.195 0-.436-.018-.625 0-.48-.026-.78-.078-1.24-.272-.032-.018-.172-.05-.322-.13a120.655 120.655 0 016.483-4.216 120.53 120.53 0 017.343-4.11 168.168 168.168 0 018.033-4.018c2.815-1.347 5.674-2.594 8.538-3.81a257.054 257.054 0 018.863-3.511 212.97 212.97 0 018.97-3.162c2.926-.928 5.921-1.872 8.906-2.72a178.214 178.214 0 018.618-2.22 151.186 151.186 0 018.188-1.686 125.71 125.71 0 013.765-.581c.334-.036.651-.06.97-.14.188-.029.396-.123.573-.193l-.223.164c.606-.074 1.194-.156 1.775-.226.547.015 1.095.015 1.63.063.231.008 1.472-.123 1.495.326.043.279-.316.247-.491.293-.245.105-.474.221-.696.318.647-.032 1.287-.024 1.93-.024.359.009.677.009 1.02.009.123 0 .601-.066.616.127-.015.113-.055.146-.2.146a11.65 11.65 0 01-.912.627c-.34.207-.59.292-1.006.397-.719.185-1.425.422-2.128.587-1.043.236-2.135.442-3.181.54-.26.029-.59-.048-.48.354.22.044.43.044.658.025.855 0 1.702.018 2.567.018.437 0 .901.05 1.318-.044.315-.063.599-.1.918-.065.365.036.756.141 1.126.225-4.457.428-9.288 1.161-13.81 2.364-3.712 1.02-4.439 1.085-6.265.963.297-.403.722-.93 1.069-1.284-2.265-.341-15.802 4.334-16.72 6.74.04 0 .076 0 .105-.024-.151.375.06.472.38.59.887.192 1.786.262 2.693.224a58.98 58.98 0 003.232.016c.817.021 1.64.021 2.456.021 1.535 0 3.07.118 4.6-.221 1.243-.285 2.473-.761 3.683-1.168 1.197-.362 2.39-.822 3.596-1.138.273-.1.565-.159.84-.255.13-.027.445-.225.594-.225.285-.009.327.148.232.38-.262.45-1.634.731-1.996.849-.601.225-1.244.436-1.857.7.024.563.856.464 1.493.39.24-.044.469-.083.58-.104.06.02.13-.008.235-.008.127 0 .28-.028.37 0 .234.133.114.658.057.846-.103.263-.3.497-.443.696-.196.28-.365.42-.712.589-.063.496 3.127.211 3.424.161.544-.11 1.187-.523 1.753-.598.203-.033.367.016.61-.045a6.18 6.18 0 01.893-.164c.352-.06.663-.234 1.037-.269.252-.031.497 0 .735.009.24-.009.511.032.788 0 .626-.043 1.24-.343 1.875-.425.16-.02.3-.02.457-.02.163 0 .316 0 .457-.013.544-.088 1.096-.174 1.603-.27.703-.175 1.396-.256 2.093-.364.965-.185 2.039-.04 3.016-.014.908.02 1.796.334 2.68.428 1.065.142-.19.84-.562 1.051a23.546 23.546 0 01-3.984 1.97c-.917.393-1.67.654-2.68.613a3.817 3.817 0 00-1.487.217c-.323.111-.62.218-.959.267-.289.008-.589-.03-.898-.03-.411 0-.887-.076-1.313-.025-.196.056-.297.122-.528.165-.146-.009-.304-.009-.42-.02-.315-.022-.616-.022-.906.095-.316.128-.322.224-.684.253h-.39c-.313-.03-.635-.03-.944.092-.753.337-1.543.343-2.343.362-.105-.007-.177-.02-.281-.007-.05.046-.116.08-.179.142-.493.213-1.011.38-1.522.535-1.1.43-2.118 1.052-3.297 1.386-.275.08-.43.05-.677.106-.7.167-1.46.418-2.146.591-.308.148-.678.225-.997.32-.572.146-.948.443-1.48.68-.26.14-.53.232-.786.374a3.893 3.893 0 01-1.294.386c-.401.05-.752.173-1.147.239-.404.062-.526.338-.811.53-.263.172-.61.112-.871.262-.546.288-1.072.603-1.626.9-.262.124-.492.22-.725.326-.33.192-.763.376-1.034.654-.223.255-.223.84-.15 1.208-.026 0-.04.02-.072.02.031 0 .046-.015.072-.015.014.06.02.102.02.151.672.193 1.28.167 1.997.048a3.42 3.42 0 00.763-.14c.368-.083.66-.092 1.016-.144.663-.057 1.267-.416 1.888-.68.093-.03.178-.104.259-.15 8.117-1.813 15.776-5.593 24.235-6.18.148 0 14.137-.63 23.557 3.752 2.924 1.34 17.074 9.25 9.789 32.326l.691-1.994c1.652-5.534 2.126-8.439 2.597-11.686l.04-.303c.625-5.742.608-6.858.464-12.941-.651-8.598-1.374-11.475-3.305-18.039l-.252-.435c-.263-.729 2.266-6.962-11.519-20.742-5.885-5.563-14.347-6.019-21.018-10.054.972-.34.972-.34 2.377-.056-5.59-3.52-12.426-2.723-18.355-4.993.739-.612 1.14-.972 3.016-.896-.044-.224-.105-.57-.144-.8 8.907-1.058 15.234.82 19.701 3.23a36.61 36.61 0 01-1.67-1.298c1.312.597 1.96.907 4.004 2.384l.195.168-.529-.435c-9.048-6.899-22.043-15.68-62.045.47l-3.023-1.018c-.028-.06-3.38 1.864-3.414 1.82"/><path d="M129.384 77.491l1.394-1.42c-.6.604-1.008 1.02-1.394 1.42zm111.726 5.757c-.07-.071-.131-.153-.185-.221.03.05.054.075.089.121l.096.1zm-18.396-16.917c-.044-.03-.086-.04-.108-.065v.006l.108.06zM129.353 77.54v-.008a.067.067 0 00.036-.04l-.036.048zm88.028 6.97c-1.245-.59-1.959-.908-2.852-1.124-.501-.139-.901-.196-1.487-.238.017.004.07.042.104.068.598.343.598.343 4.011 1.243.06.026.165.052.224.052zm38.077 36.571c-.91-8.256-1.422-10.022-3.245-16.621l-1.093-3.095c-2.664-7.014-5.583-11.513-8.405-15.882-.903-1.291-.949-1.355-2.05-2.78-.037-.037-.077-.095-.122-.13h.022c-4.268-5.321-6.129-6.878-10.795-10.85.84.54.84.54 2.033 1.478l-.53-.475c-12.013-10.412-23.961-13.653-38.213-15.297 1.526-.24 15.68.23 29.543 8.836-13.48-8.453-26.005-10.174-32.705-10.73-1.6-.065-3.452-.137-5.546-.145-6.07-.036-14.327 1.07-25.15 4.531l.046-.048s-6.904 2.088-13.318 5.16c-.162.09-.333.162-.486.234l-.263.13-1.313.667c-.08.05-.154.084-.244.132-.274.155-.556.3-.828.465a38.37 38.37 0 00-1.865 1.095l.007.01c-.446.28-.903.556-1.373.86l-1.008.723c-.808.627-1.88 1.462-2.673 2.101-1.742 1.432-1.808 1.498-4.73 4.255 4.951-4.542 18.86-12.551 41.243-15.061-1.078.9-2.358 1.388-5.651 2.225-11.63 2.657-29.184 6.681-37.259 14.553a.578.578 0 01-.135.115c-.84.872-1.55 1.725-3.707 4.277-2.021 2.49-2.134 2.676-5.089 7.148L119.1 91.4c-.073.232-.132.586-.185.828.214.034.485.06.686.082-1.667 6.87-1.667 6.87-1.68 6.91 2.642-2.152 2.642-2.152 2.759-2.227-1.556 3.535-1.556 3.535-1.828 4.482.02 0 .028-.054.046-.054a25.91 25.91 0 00-.745 2.155c.172.205.381.5.527.697 1.268-.813 2.313-1.904 3.682-2.59l-1.583 1.105c1.083-.466 2.555-1.038 3.652-1.465-1.097 1.424-2.233 2.727-3.307 4.141 1.118-.67 2.12-1.55 3.36-2.084.149.145.341.335.487.48 1.67-.214 2.65-.746 7.374-3.493l2.87-1.649c-2.955 1.878-3.362 2.119-4.165 3.473 1.057-.1 1.057-.1 7.004-2.926 7.81-3.624 12.861-5.617 28.175-9.23l-.044-.015c22.399-3.692 22.399-3.692 37.572-3.23-5.448-1.099-5.448-1.099-24.844-.836-19.984 2.232-27.974 5.258-31.41 6.553-5.645 2.159-5.78 2.115-6.836 1.945 4.858-3.583 27.145-11.361 32.887-12.181-.153 0-17.823 2.529-27.758 7.667-5.65 2.881-12.35 4.852-12.37 4.858 2.558-2.388 5.487-4.39 7.797-7.02-2.266-.559-2.266-.559-6.216.344 15.409-19.58 100.091-24.92 114.796 14.338-.913-1.327-9.229-13.027-23.824-19.19-3.614-1.527-3.73-1.653-4.455-2.367.193-.063.432-.197.65-.289-1.919-1.107-11.774-4.169-15.671-3.416 14.021 3.507 35.835 13.83 35.257 19.313-5.91-1.979-10.23-6.71-16.072-8.825 6.596 3.607 17.643 9.655 19.386 15.526a11.68 11.68 0 00-.66.412 19.475 19.475 0 01-2.092-1.55c-.011.048-.036.072-.036.103-1.324-1.432-9.079-7.481-14.191-9.67-7.228-3.08-15.14-3.735-22.619-6.007 8.126 3.137 16.987 4.217 24.649 8.572 9.146 5.14 15.965 14.308 16.051 14.39 12.158 16.427 7.351 33.202 5.56 39.484l-1.497 4.004 1.59-4.171c1.721-5.285 1.873-6.15 3.099-12.727.81-6.824.765-8.23.533-14.973l-.003.004zM171.77 88.28l.075.006c-1.864.23-4.354.647-6.201.924a206.29 206.29 0 016.128-.93h-.002zm26.084-29.33a93.623 93.623 0 00-9.987-.69c-.178 0-.446-.007-.625-.007 5.766-.158 9.91.19 14.308 1.157-1.38-.225-2.035-.294-3.7-.46h.004zm-66.697 16.744a2.058 2.058 0 01-.37.372l.096-.082c.08-.086.185-.18.274-.29zm109.534 7.033c-.034-.048-.082-.1-.122-.157.04.058.063.081.1.13.008.015.013.027.022.027z"/><path fill="url(#bea)" d="M200.748 135.421c-.01.007-.017.007-.029.002.007 0 .015 0 .029-.002m31.654-62.36c.156-.208.318-.495.448-.726-.69 2.542-2.05 5.635-3.93 9.056-.446.688-.905 1.393-1.371 2.121-2.257 3.409-6.689 4.149-9.162 7.304-.592-.333-.755-.444-1.741.094-.246-1.523 2.22-3.618.24-4.557 1.993-4.334 5.514-7.707 8.497-11.423.178.781.683 1.072 1.34 1.072 2.037 0 5.542-2.768 5.679-2.94m-22.196 13.731c-11.537 9.427-1.547 6.677-1.423 6.619 1.112-.427 2.122-1.085 2.584-1.4-10.89 12.116-41.964 25.545-64.954 15.955-6.076-2.543-10.229-4.065 1.38 3.122-.131 0-.246-.036-.355-.074 4.94 2.478 11.064 5.822 7.968 5.93 0 .061 0 .166-.014.234l-.143-.05.155.077c.107.092.107.092 8.503 3.214-.526.197-.959 2.028 6.071 2.738 8.199.798 15.56-.128 22.388-2.103-14.369 9.978-31.044 16.314-47.55 13.085.428.159 1.02.404 1.457.573 3.837 1.335 6.313 1.839 10.12 2.123a10.43 10.43 0 00-.05.676c2.684 1.402 6.242.514 6.827.196 1.538-.79 2.12-.945 12.011-1.667-2.194 1.798-5.284.95-7.565 2.517.068.296.335.73.606.922 12.5-1.707 25.388-3.468 57.343-29.46a6.391 6.391 0 011.402-.795l-.077.073c-2.334 2.225-2.334 2.225-22.238 19.104-4.753 4.026-11.61 4.484-16.049 9.037.062.177.145.399.185.583l-.14.096.203-.065a8.275 8.275 0 003.09.104 244.899 244.899 0 00-7.277 3.127c0 .16-.153-.106-.048 1.034 5.629-1.295 16.805-2.737 24.178-7.149 10.967-6.028 31.654-24.242 41.265-44.166.223-.507.648-1.14 1.085-1.456l.028.528c.355.708.355.708-.654 4.313.783-1.683 1.368-3.394 1.87-5.15 1.821-16.566-9.102-22.67-11.621-23.828-1.302-.606-2.706-1.106-4.14-1.54 0 .01-.014.025-.014.045-.099-.062-.231-.098-.347-.155a53.246 53.246 0 00-7.122-1.471c-4.813 11.414-11.074 18.103-18.931 24.504" transform="translate(0 55)"/><g transform="translate(139.899 117.017)"><mask id="bed"><use xlink:href="#beb"/></mask><path fill="url(#bec)" d="M-10.668.899L113.41-9.962l7.841 89.668-124.065 10.85z" mask="url(#bed)"/></g><path d="M246.892 124.972c-2.801 11.12-6.149 16.251-11.085 23.77-2.754 4.186-8.198 5.13-11.227 8.967-.715-.393-.94-.518-2.13.134-.316-1.884 2.71-4.436.315-5.596 4.036-8.827 13.208-14.338 16.036-23.965-1.085 1.365-1.878 2.966-2.979 4.352 1.245-4.238 3.157-8.254 4.079-12.579-.21-.097-.433-.182-.646-.265-.246.426-.558.996-.989 1.774-5.969 14.72-13.806 23.15-23.715 31.249-14.148 11.579-1.907 8.179-1.758 8.13 1.386-.563 2.575-1.364 3.183-1.722-16.873 18.762-73.315 40.107-99.275 3.71.247.36.54.895.786 1.27 6.302 9.579 6.302 9.579 20.548 18.387-2.665-.457-4.572-2.527-7.075-3.309.043.077 6.115 7.989 24.263 10.064 19.355 2.225 24.854.737 30.664-.855 4.97-1.344 9.44-1.808 9.454-1.808l-.089.048c-14.297 4.366-14.297 4.366-30.255 5.377-3.105.192-6.082-.46-9.053-1.135-2.834-.638-5.67-1.282-8.588-1.193 0 .066 0 .188-.018.255l-.178-.02.196.064c.145.139.145.139 10.429 3.962-.64.238-3.682.662-16.337-4.769.108.078 15.164 7.258 23.77 8.11 28.21 2.76 48.49-10.889 68.112-24.104 0 .09-.036.223-.042.332.24.036.545.075.8.105-.155.435-.155.435-2.277 2.965 4.627-3.735 7-9.531 11.906-13.056-.429 2.06-15.731 26.667-49.825 34.572 1.654-.223 2.163-.309 3.96-.78-2.343.67-2.406.728-3.4 1.054.616-.081.616-.081 3.806-.724-1.857.916-4.006 1.348-9.188 2.403 29.511-5.109 51.162-21.886 60.935-47.308 1.337-4.407 1.888-6.202 2.425-8.994.923-9.313-2.203-15.268-5.533-18.875"/><path d="M175.346 163.183c-1.953-1.1-3.126-2.81-3.93-4.183-.342-.589-.663-1.201-.98-1.788l-.368-.685c-.385-.734-.869-1.564-1.425-2.303a9.248 9.248 0 00-.744-.831l-.79-.832c-.245-.272-.476-.517-.67-.763a2.544 2.544 0 01-.393-.623c-3.468-8.846-4.284-13.863-5.542-22.67-.646-4.53-3.421-8.21-7.927-13.718-.566-.677-1.183-1.48-1.853-2.334-.457-.604-.944-1.213-1.422-1.835-1.48-1.854-2.688-3.234-3.636-4.156-1.614-1.369-3.035-2.57-4.334-3.668-1.834-1.544-3.385-2.854-4.808-4.045-2.709-2.214-4.786-3.772-7.18-5.393-3.343-2.263-6.928-3.394-10.627-3.394-3.782.006-6.572 1.223-7.513 1.877-3.19 2.181-5.594 3.521-8.3 4.642-1.951.817-3.991 1.487-6.567 2.329-.822.271-1.706.564-2.661.876-2.928.988-5.01 2.681-6.481 4.07-.354.33-.69.658-1.015.97a23.39 23.39 0 01-1.03.977c-.669.615-1.133.938-1.548 1.096-.447.161-1.164.267-2.198.338-.539.034-1.091.055-1.636.082-.396.023-.788.048-1.159.063-3.36.193-6.056 2.08-7.794 3.506-.907.735-1.743 1.498-2.556 2.242l-.384.361c-1.03.917-1.75 1.546-2.45 1.998-2.382 1.544-4.635 1.769-7.115 2.022-1.268.113-2.586.246-3.988.547a21.45 21.45 0 00-4.848 1.622c-1.784.84-3.582 1.916-5.833 3.483-.963.673-1.926 1.365-2.872 2.06-.824.6-1.652 1.214-2.483 1.796-3.713 2.61-6.9 4.333-10.354 4.334-3.417.013-5.837-1.978-6.17-5.075-.294-2.722 1.1-5.478 3.917-7.77l1.545-1.243c1.16-.93 2.248-1.789 3.218-2.64 1.643-1.414 2.756-2.544 3.617-3.659 2.117-2.793 2.664-5.671 1.74-9.309-.816-3.287-3.343-5.52-7.71-6.823-1.56-.472-3.145-.74-4.634-.986l-.515-.092c-.455-.066-.868-.123-1.226-.193-.475-.094-.816-.181-1.005-.26-2.368-1.046-7.517-4.493-8.549-5.185l-.424-.277-.285.412c-.943 1.357-1.678 2.428-2.238 7.117-.61 5.175 3.653 11.504 11.002 12.651.412.068.745.362.858.776a1.04 1.04 0 01-.365 1.08c-7.776 6.118-9.417 8.74-9.825 15.615-.256 4.252 1.243 8.431 4.1 11.464 3.122 3.306 7.637 5.043 13.077 5.043 1.443 0 2.975-.134 4.539-.371.054-.018.106-.018.169-.018.23 0 .462.077.643.23.227.17.375.444.391.726.369 4.784 1.238 8.657 2.316 10.386.27.433.2.99-.167 1.337-.33.305-.862.606-1.53.874-1.66.642-4.174 1.047-6.681 1.047-1.562.009-2.732 1.083-3.667 3.398-.307.748-.552 1.553-.792 2.32l-.064.22c-.135.388-.241.748-.36 1.087-.107.29-.222.558-.342.785-.312.55-.778 1.105-1.422 1.68a1.036 1.036 0 01-.687.254c-.052 0-.124-.008-.18-.008a1.081 1.081 0 01-.737-.528c-.77-1.373-1.98-2.253-3.585-2.605l-.044-.013h-.165c-2.377 0-6.507 2.027-8.016 5.818a1.05 1.05 0 01-.86.64l-.191.035c-1.894.199-3.096 1.076-3.767 2.762-.28.73-.462 1.534-.589 2.228l-.101.524c-.11.578-.222 1.183-.369 1.753a5.528 5.528 0 01-.53 1.313c-.12.233-.245.43-.355.628-.09.14-.175.272-.26.409-.415.788-.632 1.591-.293 2.939.15.616.65 1.166 1.458 1.597.61.33 1.376.608 2.31.837 1.668.417 3.293.528 3.614.528.232 0 .46-.075.677-.184.166-.09.308-.217.488-.345.186-.157.447-.234.685-.234a.61.61 0 01.16.013l.779.145c.633.116 1.42.27 2.212.435l.122.03c.765.143 1.508.288 2.111.406.318.06.612.105.828.155.241.025.428.04.545.033l.004.006c3.286-.165 4.672-1.44 5.582-2.66.272-.36.497-.717.725-1.101l.377-.635.27-.479c.271-.45.54-.868.832-1.277.2-.276.508-.426.844-.426a.96.96 0 01.265.025c.378.103.759.174 1.08.237.755.117 1.46.183 1.757.207.216.004.419.025.628.025 3.115 0 5.427-1.736 7.342-3.378l.628-.525c.31-.264.586-.5.871-.74.386-.332.886-.739 1.417-1.078.933-.624 1.713-.919 2.49-.912l.187.006c.752.034 3.555.243 8.32.978.208.047.411.062.616.062 1.08 0 2.445-.382 4.074-1.097a34.48 34.48 0 003.864-2.105c.297-.196.644-.353 1.072-.55l.108-.048a38.18 38.18 0 001.24-.581c.775-.392 1.922-1.067 2.848-2.237.544-.683 1.268-2.108 1.985-3.555l.773-1.592c.43-.879.886-1.813 1.338-2.742a1.07 1.07 0 01.942-.581l.015.008h.28c1.477 0 3.241-.237 4.786-.454.67-.106 1.337-.2 1.975-.31 1.42-.223 2.638-.415 3.547-.464.224 0 .825.048 1.658.11l1.89.127c2.369.132 4.319.202 5.93.186.956.006 1.796-.016 2.502-.064 1.266-.095 2.437-.282 3.377-.577a7.52 7.52 0 00.83-.286 1.37 1.37 0 01.426-.102c.258 0 .526.11.727.305.516.499 1.071 1.02 1.623 1.514a.98.98 0 01.31 1.1 1.044 1.044 0 01-.911.721 9.576 9.576 0 00-.609.063c-.662.091-1.88.36-2.48 1.14-.204.274-.51.406-.826.406a1.15 1.15 0 01-.42-.08 2.802 2.802 0 00-.442-.16 3.377 3.377 0 00-.887-.108l-.135.003-.355-.003-.537.015h-.287c-.944 0-3.162-.012-5.072.31-1.18.2-2.116.486-2.78.864-.627.343-1.348.992-1.29 2.05.107 1.972 2.88 7.283 4.764 9.155.363.374 1.608.756 2.979.756.139 0 .292-.01.44-.018l.075-.002c.39 0 .742.22.924.568 1.933 3.808 5.273 6.357 8.314 6.357l.202-.012c2.9-.107 10.735-2.938 16.226-5.547.072-.021.146-.042.223-.06.173-.048.38-.074.594-.106.322-.05.692-.094 1.082-.134l.552-.06c1.21-.153 2.585-.355 3.593-.83.93-.452 2.278-2.188 3.425-4.426.192-.348.547-.564.927-.564h.097c.424.048.781.34.901.749a6.8 6.8 0 00.496 1.203c.94 1.758 2.613 2.66 4.972 2.643.128 0 .257 0 .392-.006 1.624-.06 3.404-.602 4.952-1.105l.883-.29c1.336-.458 2.584-.877 3.756-1.079.42-.073.896-.11 1.445-.12.25 0 .52.01.79.02.492.027.99.07 1.493.106.336.018.674.06 1.015.066.481.036.98.07 1.507.06 1.45.01 2.565-.205 3.563-.688 1.463-.601 2.605-1.418 3.354-1.966l.278-.2c.185-.144.402-.19.609-.21.251.02.493.1.694.266a19.467 19.467 0 0013.006 4.882h.662c1.55-.054 2.766-.569 3.421-1.465a2.266 2.266 0 00.393-1.983 1.075 1.075 0 01.125-.834c.16-.241.41-.414.706-.463 1.056-.193 1.93-.576 2.563-1.13.573-.52.953-1.254.958-1.9 0-.433-.153-.79-.484-1.11-.716-.666-1.124-.908-3.198-2.066m-46.298-8.047c-.708.878-1.776 1.145-2.744 2.867-1.948-.763-2.288-3.329-2.651-4.442 1.56-.292 5.236-.99 7.16-1.288-.794 1.007-1.358 1.682-1.767 2.863"/><g><path d="M173.825 164.936c-3.622-2.106-5.079-6.1-7.328-9.248-.784-1.166-2.174-1.9-2.897-3.038-2.613-7.072-4.848-14.13-5.526-22.236-.547-2.009-.96-4.05-2.06-5.934-3.27-5.309-7.508-10.153-11.613-15.037-.37-.368-.375-.41-1.157-1.156l-14.339-11.886c-1.76-1.335-3.752-2.18-5.746-3.08-3.03-1.15-7.138-.894-10.091.373-3.09 1.633-5.87 4-9.128 5.092-4.708 2.123-10.032 2.55-14.085 6.17-2.355 2.06-4.354 5.26-7.86 4.725-3.925-.181-7.436 1.27-10.384 3.71-2.669 2.4-5.207 5.26-8.654 5.924-3.022 1.277-6.705.669-9.786 1.826-4.898 1.201-8.77 5.086-12.93 8.057-4.171 2.414-8.159 5.015-13.36 4.896-3.393-.234-6.655-2.587-7.744-5.847-1.033-3.753.107-7.617 3.08-10.16 3.07-3.695 7.975-5.88 10.387-10.114 1.263-2.231 1.086-5.861-.602-7.987-3.212-3.312-7.813-3.427-11.982-4.451-2.662-.73-4.72-2.777-7.08-4.04-.905 1.375-1.2 2.897-1.085 4.583.489 3.803 3.39 7.257 7.023 8.582 2.11.907 4.539.242 6.715.721.609.247 1.204.85 1.268 1.515-.116.6-.178 1.206-.723 1.632-3.382 2.842-6.948 5.562-9.788 9.07-3.025 3.274-3.373 9.007-1.801 13.128 1.75 4.702 6.657 7.8 11.374 8.398 3.438.54 6.534-.373 9.67-1.045.422 0 .608.44.789.667.304 2.784-.12 5.258.49 7.805.541 2.353 1.33 3.981 2.188 6.278.115.785 0 1.634-.548 2.25-1.757 1.326-3.575 2.233-5.509 3.08l-4.708.3-.906.438c-1.753 2.05-1.806 4.166-2.894 6.479-1.448 2.408-4.11 3.569-6.343 4.96-.722 1.142-1.515 2.356-2.54 3.263-.784.707-1.75.917-2.779 1.018-1.627 1.886-1.99 4.491-2.415 7.031 2.66.243 5.444 1.695 8.044.243 2.235-1.037 2.72-3.759 4.408-5.395 1.325-1.45 3.329-.364 4.9-.056 2.358.106 4.054-1.58 6.042-2.38 1.388-.897 2.526-2.482 3.982-3.379 2.786-1.337 6.65-.626 9.563-.069 2.288.594 4.707.225 6.708-.667 1.869-1.164 3.625-2.615 5.735-3.1 1.874-.963 2.788-3.08 3.561-4.84.609-1.627 2.188-2.901 2.064-4.783-.492-.42-1.032-1.335-1.762-1.262-.912 1.262-1.578 2.595-2.6 3.817-4.368 5.966-7.801 6.534-16.682 6.543-6.596-.243-12.513 1.768-17.044 6.907-.303.19-.729.06-.97-.182-.169-.722.426-1.933.725-2.478 4.045-5.745 10.34-7.072 16.99-7.21 3.623-.242 7.075-.846 10.151-2.427 3.444-1.754 5.797-4.497 7.254-7.883.777-3.805 1.072-7.917 2.04-11.542.123-.373 1.02-.637 1.316-.518.372.074 1.097.393 1.101.813-.669 3.749-1.866 8.158-.414 11.781 2.904 3.819 8.29 1.748 12.216 1.562 4.11-.362 7.422-.048 11.348.193 1.933-.052 3.365.422 4.876-.795.423-.671.593-1.576.468-2.3-.125-1.082-1.039-1.741-.01-2.648.312-.249 1.212-.092 1.451.22.548 1.504.793 3.14 1.762 4.478 1.937 2.48 4.78 4.413 7.438 5.814 2.531 1.748 4.654 4.215 4.839 7.305.016 1.572-1.45 2.644-2.658 3.38-2.05 1.03-4.284 1.878-6.71 1.637-3.206-1.56-4.05-4.94-6.17-7.42-1.097-1.212-2.727-1.442-4.353-1.337-1.764.186-3.512.253-5.08.796-.42.36-.544.917-.49 1.46 1.096 1.99 2.303 3.918 3.513 5.907 1.4.859 3.333-.476 4.534 1.02 1.036 1.588 1.707 3.447 3.27 4.669 1.516 1.312 3.817 1.924 5.81 1.089 4.47-1.402 8.954-2.867 13.119-5.11h1.39c1.686-.164 3.564-.064 4.77-1.336 1.327-1.925 2.42-3.74 3.44-5.797 1.03-1.39.552-3.509.119-5.01-2.06-2.556-3.211-5.4-4.298-8.308-1.035-.303-1.931-.897-3.09-.838-.542.236-1.33.123-1.633.715l4.782 9.45c.306.73.67 1.768.493 2.725-.672 1.996-1.694 3.933-3.323 5.385-.3.178-.663.349-.902-.062.538-2.05 1.501-4.296 1.38-6.654l-4.664-8.414c-.541-1.138-1.51-2.177-1.456-3.505-.007-.61.548-1.033 1.03-1.271 2.051-.663 4.525-.556 6.098-2.188 2.06-3.198 2.483-6.347 3.026-10.144.12-.248.604-.712.97-.712.36-.132.771.399.957.591.61 4.163-.231 8.381-2.655 11.66-.112.422-.298.966.185 1.264 2.3.737 4.718 0 6.65-1.03 2.485.058 4.773-.548 7.012-.91.243.119.493.362.493.61-1.515 1.689-2.363 3.56-2.782 5.748-1.813 1.877-4.41 3.522-4.588 6.233.301 1.334 1.457.06 2.239.194a.7.7 0 01.604.711l-1.812 2.663c-.968 1.573.183 3.39.183 4.893.429 1.217 1.882 1.818 3.147 1.818 2.728-.115 5.14-1.154 7.56-2.004 2.657-1.154 5.975-1.083 8.884-.613 2.84-.178 4.96-2.066 7.066-3.942 1.156.012 2.188.798 2.966 1.634 3.266 3.508 7.505 5.01 12.288 4.883l.414-.237c.31-.306.185-.848-.185-1.081l-2.834-1.45c-1.996-1.278-4.47-2.96-5.14-5.198-.616-2.001-1.703-4.172-2.908-6.11-.43-.978-1.39-1.754-1.815-2.73.108-.125.238-.302.425-.248 3.143 1.085 5.01 4.183 6.462 6.973 2.315 3.195 5.633 5.918 9.987 5.197l.362-.316c.186-.236.129-.545 0-.72l-2.174-1.093m-47.493-42.551l-.148-.043s-.015.043-.022.068a.14.14 0 00-.037.036c-.173.171-.478.29-.788.085l-.075-.05-.022-.097c-.464-2.408-1.01-4.96-1.987-7.33.007 0-.557-.966-.557-.966l-.22-.303-.476-.694c-.39-.606-.757-1.436-.252-2.403l.055-.086c.438-.43 1.216-.476 1.749-.274l.07.037c1.032.701 1.694 1.891 2.187 2.746.603 1.42.924 3.196.924 5.047 0 1.402-.182 2.834-.547 4.183l.146.044m23.082 39.862s-.02.026-.016.032a.163.163 0 00-.056 0c-1.116.355-2.399.506-3.77.435l-.076-.013c.007 0-.254-.109-.254-.109l-.263-.163c-.135-.12-.339-.334-.223-.685.525-1.568 2.07-3.392 4.038-3.795.049 0 .167-.012.167-.012l.276.012.442.058a.907.907 0 01.669.759c.036.277.05.606.05.94 0 .924-.188 1.934-.984 2.541m7.385-16.489c-.009.04-.178.501-.178.501-.008.04-.162.531-.162.531-.17.48-.44.74-.86.84-.25.074-.482.038-.659-.101-.189-.138-.292-.365-.292-.624l-.04-.53-.188-1.86c-.15-.861-.41-1.528-.805-2.096a76.077 76.077 0 01-.815-.943c-.031-.03-.93-1.04-.93-1.04-.706-.713-1.348-1.041-2.007-1.074-.522.165-.986.502-1.5 1.053l-.638.799-.568.765c-.208.34-.661.141-.678.141 0 0-.03-.02-.072-.034a.656.656 0 01-.035-.1 2.746 2.746 0 01-.195-1.032c0-.573.167-1.103.345-1.52l.493-1.015.557-1.179.085-.114c.163-.162.324-.45.502-.945l.162-.416.32-.838c.51-1.078 1.243-1.369 2.337-.907.854.45 1.371 1.17 1.767 1.814l.271.452.346.562.713.9c1.958 2.186 2.904 4.258 2.904 6.392a7.162 7.162 0 01-.18 1.618"/><path d="M13.304 171.79c1.88-1.093 3.08-3.152 4.057-4.912-.186-.658-.848-1.14-1.398-1.634-.36-.296-.902-.05-1.332.066-1.334 1.156-2.709 2.05-4.161 2.971-.616.414-.364 1.325-.491 1.986 0 .608.728 1.036 1.09 1.392.67.308 1.517.364 2.235.13m-6.343.185c-.97.49-1.998 1.396-2.235 2.483-.307 1.936.125 3.744-1.378 5.15-.063.367-.444.787-.063 1.157 1.321.406 2.592.955 4.222 1.13.728-2.362 1.264-4.968 2.118-7.012v-.606c-.723-.906-1.457-2.059-2.664-2.302m91.708-6.497c1.213 1.337 1.15 3.378 2.544 4.41 1.813.307 3.437-.42 4.84-1.509.782-.673-.37-1.517-.486-2.308-.794-1.133-.253-3.446-2.18-3.498-1.948.294-3.878.358-5.81.37l-.549.368c-.356 1.14 1.336 1.14 1.64 2.167"/></g></g></symbol><symbol xmlns="http://www.w3.org/2000/svg" viewBox="0 0 132 15" id="zickzack"><path d="M124.003 6.003L118.5.5 118 0l-13 13L92 0l-.5.5L79 13 66.5.5 66 0 53 13 40 0l-.5.5L27 13 14.5.5 14 0 8.203 5.797l.01.01L.01 14.01 1 15 14 2l13 13L40 2l13 13L66 2l13 13L92 2l13 13 13-13 13 13 .997-.997L124 6.007l.003-.004zm17.6-3.606L143.5.5l.5-.5 13 13 13-13 .5.5L183 13 195.5.5l.5-.5 13 13 13-13 .5.5L235 13 247.5.5l.5-.5 13 13L273.5.5l.5-.5 13 13L299.5.5l.5-.5 13 13 13-13 .5.5L339 13 351.5.5l.5-.5 13 13L377.5.5l.5-.5 13 13L403.5.5l.5-.5 13 13 13-13 .5.5L443 13 455.5.5l.5-.5 13 13 13-13 .5.5L495 13 507.5.5l.5-.5 13 13 13-13 .5.5L547 13 559.5.5l.5-.5 13 13L585.5.5l.5-.5 13 13L611.5.5l.5-.5 13 13 13-13 .5.5L651 13 663.5.5l.5-.5 13 13 13-13 .5.5L703 13 715.5.5l.5-.5 13 13 13-13 .5.5L755 13 767.5.5l.5-.5 13 13 13-13 .5.5L807 13 819.5.5l.5-.5 13 13 13-13 .5.5L859 13 871.5.5l.5-.5 13 13L897.5.5l.5-.5 13 13L923.5.5l.5-.5 13 13 13-13 .5.5L963 13 975.5.5l.5-.5 13 13L1001.5.5l.5-.5 13 13L1027.5.5l.5-.5 13 13 13-13 .5.5L1067 13 1079.5.5l.5-.5 13 13 13-13 .5.5L1119 13 1131.5.5l.5-.5 13 13 13-13 .5.5L1171 13 1183.5.5l.5-.5 13 13L1209.5.5l.5-.5 13 13L1235.5.5l.5-.5 13 13 13-13 .5.5L1275 13 1287.5.5l.5-.5 13 13L1313.5.5l.5-.5 13 13L1339.5.5l.5-.5 13 13 13-13 .5.5L1379 13 1391.5.5l.5-.5 13 13 13-13 .5.5L1431 13 1443.5.5l.5-.5 13 13 13-13 .5.5L1483 13 1495.5.5l.5-.5 13 13L1521.5.5l.5-.5 13 13L1547.5.5l.5-.5 13 13 13-13 .5.5L1587 13 1599.5.5l.5-.5 13 13L1625.5.5l.5-.5 13 13L1651.5.5l.5-.5 13 13 13-13 .5.5L1691 13 1703.5.5l.5-.5 13 13 13-13 .5.5L1743 13 1755.5.5l.5-.5 13 13 13-13 .5.5L1795 13 1807.5.5l.5-.5 13 13L1833.5.5l.5-.5 13 13L1859.5.5l.5-.5 13 13 13-13 .5.5L1899 13 1911.5.5l.5-.5 13 13 13-13 .5.5L1951 13 1963.5.5l.5-.5 13 13 13-13 .5.5L2003 13 2015.5.5l.5-.5 13 13 13-13 .5.5L2055 13 2067.5.5l.5-.5 13 13 13-13 .5.5L2107 13 2119.5.5l.5-.5 13 13L2145.5.5l.5-.5 13 13L2171.5.5l.5-.5 13 13 13-13 .5.5L2211 13 2223.5.5l.5-.5 13 13L2249.5.5l.5-.5 13 13L2275.5.5l.5-.5 13 13 13-13 .5.5L2315 13 2327.5.5l.5-.5 13 13 13-13 .5.5L2367 13 2379.5.5l.5-.5 13 13 13-13 .5.5L2419 13 2431.5.5l.5-.5 13 13L2457.5.5l.5-.5 13 13L2483.5.5l.5-.5 13 13 13-13 .5.5L2523 13 2535.5.5l.5-.5 13 13 13-13 1 1-14 14-13-13-13 13-13-13-13 13-13-13-13 13-13-13-13 13-13-13-13 13-13-13-13 13-13-13-13 13-13-13-13 13-13-13-13 13-13-13-13 13-13-13-13 13-13-13-13 13-13-13-13 13-13-13-13 13-13-13-13 13-13-13-13 13-13-13-13 13-13-13-13 13-13-13-13 13-13-13-13 13-13-13-13 13-13-13-13 13-13-13-13 13-13-13-13 13-13-13-13 13-13-13-13 13-13-13-13 13-13-13-13 13-13-13-13 13-13-13-13 13-13-13-13 13-13-13-13 13-13-13-13 13-13-13-13 13-13-13-13 13-13-13-13 13-13-13-13 13-13-13-13 13-13-13-13 13-13-13-13 13-13-13-13 13-13-13-13 13-13-13-13 13-13-13-13 13-13-13-13 13-13-13-13 13-13-13-13 13-13-13-13 13-13-13-13 13-13-13-13 13-13-13-13 13-13-13-13 13-13-13-13 13-13-13-13 13-13-13-13 13-13-13-13 13-13-13-13 13-13-13-13 13-13-13-13 13-13-13-13 13-13-13-13 13-13-13-13 13-13-13-13 13-13-13-13 13-13-13-13 13-13-13-13 13-13-13-13 13-13-13-13 13-13-13-13 13-13-13-13 13-13-13-13 13-13-13-13 13-13-13-13 13-13-13-13 13-13-13-13 13-13-13-13 13-13-13-13 13-13-13-13 13-13-13-13 13-13-13-13 13-13-13-13 13-13-13-13 13-13-13-13 13-13-13-13 13-13-13-13 13-13-13-13 13-13-13-13 13-13-13-13 13-13-13-13 13-13-13-13 13-13-13-13 13-13-13-13 13-13-13-1.397 1.397-1-1zm-151.2.006L-12 0l-.5.5L-25 13-38 0l-.5.5L-51 13-64 0l-.5.5L-77 13-89.5.5-90 0l-13 13-13-13-.5.5L-129 13-141.5.5l-.5-.5-13 13-13-13-.5.5L-181 13-193.5.5l-.5-.5-13 13-13-13-.5.5L-233 13l-13-13-.5.5L-259 13l-13-13-.5.5L-285 13-297.5.5l-.5-.5-13 13-13-13-.5.5L-337 13l-13-13-.5.5L-363 13l-13-13-.5.5L-389 13-401.5.5l-.5-.5-13 13-13-13-.5.5L-441 13-453.5.5l-.5-.5-13 13-13-13-.5.5L-493 13-505.5.5l-.5-.5-13 13-13-13-.5.5L-545 13-557.5.5l-.5-.5-13 13-13-13-.5.5L-597 13-609.5.5l-.5-.5-13 13-13-13-.5.5L-649 13l-13-13-.5.5L-675 13l-13-13-.5.5L-701 13-713.5.5l-.5-.5-13 13-13-13-.5.5L-753 13-765.5.5l-.5-.5-13 13-13-13-.5.5L-805 13-817.5.5l-.5-.5-13 13-13-13-.5.5L-857 13l-13-13-.5.5L-883 13l-13-13-.5.5L-909 13-921.5.5l-.5-.5-13 13-13-13-.5.5L-961 13l-13-13-.5.5L-987 13l-13-13-.5.5L-1013 13-1025.5.5l-.5-.5-13 13-13-13-.5.5L-1065 13-1077.5.5l-.5-.5-13 13-13-13-.5.5L-1117 13-1129.5.5l-.5-.5-13 13-13-13-.5.5L-1169 13l-13-13-.5.5L-1195 13l-13-13-.5.5L-1221 13-1233.5.5l-.5-.5-13 13-13-13-.5.5L-1273 13l-13-13-.5.5L-1299 13l-13-13-.5.5L-1325 13-1337.5.5l-.5-.5-13 13-13-13-.5.5L-1377 13-1389.5.5l-.5-.5-13 13-13-13-.5.5L-1429 13-1441.5.5l-.5-.5-13 13-13-13-.5.5L-1481 13l-13-13-.5.5L-1507 13l-13-13-.5.5L-1533 13-1545.5.5l-.5-.5-13 13-13-13-.5.5L-1585 13l-13-13-.5.5L-1611 13l-13-13-.5.5L-1637 13-1649.5.5l-.5-.5-13 13-13-13-.5.5L-1689 13-1701.5.5l-.5-.5-13 13-13-13-.5.5L-1741 13-1753.5.5l-.5-.5-13 13-13-13-.5.5L-1793 13-1805.5.5l-.5-.5-13 13-13-13-.5.5L-1845 13-1857.5.5l-.5-.5-13 13-13-13-.5.5L-1897 13l-13-13-.5.5L-1923 13l-13-13-.5.5L-1949 13-1961.5.5l-.5-.5-13 13-13-13-.5.5L-2001 13-2013.5.5l-.5-.5-13 13-13-13-.5.5L-2053 13-2065.5.5l-.5-.5-13 13-13-13-.5.5L-2105 13l-13-13-.5.5L-2131 13l-13-13-.5.5L-2157 13-2169.5.5l-.5-.5-13 13-13-13-.5.5L-2209 13l-13-13-.5.5L-2235 13l-13-13-.5.5L-2261 13-2273.5.5l-.5-.5-13 13-13-13-.5.5L-2313 13-2325.5.5l-.5-.5-13 13-13-13-.5.5L-2365 13-2377.5.5l-.5-.5-13 13-13-13-.5.5L-2417 13l-13-13-1 1 14 14 13-13 13 13 13-13 13 13 13-13 13 13 13-13 13 13 13-13 13 13 13-13 13 13 13-13 13 13 13-13 13 13 13-13 13 13 13-13 13 13 13-13 13 13 13-13 13 13 13-13 13 13 13-13 13 13 13-13 13 13 13-13 13 13 13-13 13 13 13-13 13 13 13-13 13 13 13-13 13 13 13-13 13 13 13-13 13 13 13-13 13 13 13-13 13 13 13-13 13 13 13-13 13 13 13-13 13 13 13-13 13 13 13-13 13 13 13-13 13 13 13-13 13 13 13-13 13 13 13-13 13 13 13-13 13 13 13-13 13 13 13-13 13 13 13-13 13 13 13-13 13 13 13-13 13 13 13-13 13 13 13-13 13 13 13-13 13 13 13-13 13 13 13-13 13 13 13-13 13 13 13-13 13 13 13-13 13 13 13-13 13 13 13-13 13 13 13-13 13 13 13-13 13 13 13-13 13 13 13-13 13 13 13-13 13 13 13-13 13 13 13-13 13 13 13-13 13 13 13-13 13 13 13-13 13 13 13-13 13 13 13-13 13 13 13-13 13 13 13-13 13 13 13-13 13 13 13-13 13 13 13-13 13 13 13-13 13 13 13-13 13 13 13-13 13 13 13-13 13 13 13-13 13 13 13-13 13 13 13-13 13 13 13-13 13 13 13-13 13 13 13-13 13 13 13-13 13 13 13-13 13 13 13-13 13 13 13-13 13 13 13-13 13 13 13-13 13 13 13-13 13 13 13-13 13 13 13-13 13 13 13-13 13 13 13-13 13 13 13-13 13 13 13-13 13 13 13-13 13 13 13-13 13 13 13-13 13 13 13-13 1.403 1.403 1-1z"/></symbol></svg>